<?xml version="1.0" encoding="UTF-8"?>
<svg version="1.1" xmlns="http://www.w3.org/2000/svg" width="225" height="225">
<path d="M0 0 C0.65097656 0.1556543 1.30195313 0.31130859 1.97265625 0.47167969 C27.98818108 6.94970053 52.81236196 24.1348066 67 47 C67.65742188 48.04800781 68.31484375 49.09601562 68.9921875 50.17578125 C74.18648681 58.70532873 78.0069186 67.4806509 81 77 C81.31759277 77.97984863 81.31759277 77.97984863 81.64160156 78.97949219 C90.60851761 107.81288786 85.11179849 138.21843505 71.8125 164.5625 C57.653858 189.948259 33.15563449 209.56910355 5.3125 217.875 C2.55335236 218.63675999 -0.21602262 219.3352863 -3 220 C-4.50820313 220.36931641 -4.50820313 220.36931641 -6.046875 220.74609375 C-35.40277044 226.49826245 -65.13914242 220.0355513 -90.046875 204.0234375 C-116.65875977 185.7893683 -132.91975128 160.53671171 -139 129 C-141.85168668 113.24260308 -140.60597967 96.51409858 -137 81 C-136.79503906 80.02417969 -136.59007812 79.04835938 -136.37890625 78.04296875 C-132.09514359 59.87023645 -121.20037106 44.6980214 -109 31 C-108.42765625 30.34257813 -107.8553125 29.68515625 -107.265625 29.0078125 C-80.71211384 0.4011948 -36.99025584 -9.06588294 0 0 Z M-99.5859375 89.9609375 C-101.12893605 93.27710565 -101.40768341 95.73263164 -101.66357422 99.33300781 C-102.35942813 104.84934175 -104.35339747 110.10305333 -106.0625 115.375 C-106.80711286 117.69411901 -107.5481756 120.01438181 -108.28515625 122.3359375 C-108.61394775 123.35220215 -108.94273926 124.3684668 -109.28149414 125.41552734 C-110.1339252 128.03464868 -110.1339252 128.03464868 -110 131 C-106.22943831 131.11798604 -102.45936235 131.18783864 -98.6875 131.25 C-97.63498047 131.28351563 -96.58246094 131.31703125 -95.49804688 131.3515625 C-85.2644494 131.47751447 -76.29331464 129.26397264 -68.72265625 122.06640625 C-62.85828385 115.03181895 -60.34859712 107.06535678 -61 98 C-61.83134303 93.93565629 -62.76947665 93.15959309 -66.25 90.75 C-72.40808061 87.30373471 -79.76604327 87.72921067 -86.625 87.625 C-87.56601563 87.58761719 -88.50703125 87.55023438 -89.4765625 87.51171875 C-94.92842899 87.40618755 -94.92842899 87.40618755 -99.5859375 89.9609375 Z M-43.875 90.375 C-46.20973274 92.69619595 -46.20973274 92.69619595 -46 95 C-45.01 95.33 -44.02 95.66 -43 96 C-43.62777344 96.07637695 -44.25554687 96.15275391 -44.90234375 96.23144531 C-47.16023426 96.78747201 -47.16023426 96.78747201 -47.94140625 98.87011719 C-48.14636719 99.67094727 -48.35132812 100.47177734 -48.5625 101.296875 C-48.92214844 102.61171875 -48.92214844 102.61171875 -49.2890625 103.953125 C-49.52367188 104.87609375 -49.75828125 105.7990625 -50 106.75 C-53.00727326 118.38252953 -53.00727326 118.38252953 -57 122 C-59.078125 122.4609375 -59.078125 122.4609375 -61.25 122.375 C-66.42107526 122.63226743 -68.90956076 124.92761335 -72.56640625 128.40625 C-74.11146056 129.76663776 -74.11146056 129.76663776 -74 131 C-71.12442297 131.08138426 -68.25117738 131.14067851 -65.375 131.1875 C-64.56675781 131.21263672 -63.75851563 131.23777344 -62.92578125 131.26367188 C-57.00719547 131.33584975 -52.95589397 130.4172644 -48.2421875 126.5625 C-41.32436587 118.65641814 -37 105.47673736 -37 95 C-36.35466922 92.66067594 -35.68939809 90.32671854 -35 88 C-39.18121228 87.51381253 -40.55519336 87.63255104 -43.875 90.375 Z M-13.3515625 100.01953125 C-15 102 -15 102 -16.5859375 103.63671875 C-18.20666254 105.26728034 -18.20666254 105.26728034 -20 108 C-19.75349269 113.40725704 -17.39590815 117.67897338 -14.9375 122.375 C-14.37192383 123.47908203 -14.37192383 123.47908203 -13.79492188 124.60546875 C-12.87055636 126.40739646 -11.93627386 128.20423099 -11 130 C-7.37 130 -3.74 130 0 130 C-1.09893257 124.50533717 -3.34503946 120.78602519 -6.29296875 116.171875 C-9.04484391 111.63473316 -9.04484391 111.63473316 -8.82592773 108.53613281 C-7.85119312 105.54306656 -6.66482134 104.21644164 -4.40234375 102.046875 C-3.68369141 101.345625 -2.96503906 100.644375 -2.22460938 99.921875 C-1.46986328 99.20515625 -0.71511719 98.4884375 0.0625 97.75 C1.55526396 96.30923547 3.04625499 94.86663094 4.53515625 93.421875 C5.53107788 92.47199707 5.53107788 92.47199707 6.54711914 91.50292969 C8.11583903 90.2285661 8.11583903 90.2285661 8 89 C-2.40824341 87.93793435 -6.94604693 92.29523306 -13.3515625 100.01953125 Z M16 89 C13.38242597 96.18457255 11.72021199 103.41331286 10.21020508 110.90429688 C9.8088014 112.89332726 9.39819049 114.88029909 8.98632812 116.8671875 C7.54382627 123.38323883 7.54382627 123.38323883 7 130 C9.64 130 12.28 130 15 130 C16.69747624 125.18283768 17.96128084 120.34020173 19.125 115.375 C19.30675781 114.62476562 19.48851562 113.87453125 19.67578125 113.1015625 C20.49814526 109.61424444 21 106.60245405 21 103 C24 104 24 104 25.41040039 106.28491211 C25.88469482 107.27241455 26.35898926 108.25991699 26.84765625 109.27734375 C27.37037109 110.34791016 27.89308594 111.41847656 28.43164062 112.52148438 C28.96982422 113.64876953 29.50800781 114.77605469 30.0625 115.9375 C31.13323457 118.15663241 32.20729423 120.37416447 33.28515625 122.58984375 C33.75832275 123.57847412 34.23148926 124.56710449 34.71899414 125.58569336 C35.89884808 128.09431935 35.89884808 128.09431935 38 130 C40.21072977 130.24253813 40.21072977 130.24253813 42.625 130.125 C44.08333333 130.08333333 45.54166667 130.04166667 47 130 C49.14781934 121.71115351 51.01901907 113.39785267 52.6875 105 C52.91244141 103.89527344 53.13738281 102.79054688 53.36914062 101.65234375 C53.58119141 100.59144531 53.79324219 99.53054687 54.01171875 98.4375 C54.20209717 97.48746094 54.39247559 96.53742188 54.58862305 95.55859375 C55.10582913 92.77369575 55.10582913 92.77369575 55 89 C49.98464948 89.32960216 49.98464948 89.32960216 46 92 C45.27623436 94.29849541 45.27623436 94.29849541 44.74609375 96.97265625 C44.53146484 97.95427734 44.31683594 98.93589844 44.09570312 99.94726562 C43.87849609 100.97529297 43.66128906 102.00332031 43.4375 103.0625 C43.00189643 105.09573997 42.56325906 107.12833316 42.12109375 109.16015625 C41.83383423 110.51572632 41.83383423 110.51572632 41.54077148 111.89868164 C41 114 41 114 40 115 C39.41714233 113.8718689 39.41714233 113.8718689 38.82250977 112.72094727 C37.38342724 109.9377733 35.94265987 107.15548026 34.50073242 104.3737793 C33.876354 103.16840238 33.25265346 101.96267408 32.62963867 100.7565918 C31.7353349 99.02561242 30.83840998 97.29598803 29.94140625 95.56640625 C29.40201416 94.52427979 28.86262207 93.48215332 28.30688477 92.40844727 C27.21051832 90.11576501 27.21051832 90.11576501 26 89 C24.31391034 88.92794489 22.62499341 88.91613932 20.9375 88.9375 C20.01839844 88.94652344 19.09929687 88.95554687 18.15234375 88.96484375 C17.44207031 88.97644531 16.73179687 88.98804687 16 89 Z " fill="#057E3E" transform="translate(140,3)"/>
<path d="M0 0 C4.71319103 -0.86115278 9.84598319 -0.4435393 14 2 C16.77892225 4.39562263 17.29130239 6.64960396 17.5625 10.1875 C17.36456801 15.89925162 14.70255506 19.80096596 11 24 C6.51164588 27.99331506 2.14374913 29.14917278 -3.75 29.0625 C-4.54921875 29.05347656 -5.3484375 29.04445313 -6.171875 29.03515625 C-6.77515625 29.02355469 -7.3784375 29.01195313 -8 29 C-9.4272704 26.14545919 -8.52501735 24.6936947 -7.63671875 21.66015625 C-7.17168945 20.0659082 -7.17168945 20.0659082 -6.69726562 18.43945312 C-6.36404297 17.32505859 -6.03082031 16.21066406 -5.6875 15.0625 C-5.36587891 13.95197266 -5.04425781 12.84144531 -4.71289062 11.69726562 C-2.26443679 3.39665518 -2.26443679 3.39665518 0 0 Z " fill="#078240" transform="translate(51,98)"/>
<path d="M0 0 C3.63 0 7.26 0 11 0 C10.38497952 4.8518282 9.43748514 9.46146058 8.1875 14.1875 C5.72191657 23.71006989 3.85994721 33.34410386 2 43 C-1.96 43 -5.92 43 -10 43 C-8.7370147 34.47484924 -6.83982911 26.33952383 -4.54980469 18.03662109 C-3.56575397 14.39143856 -2.65915676 10.72695003 -1.75 7.0625 C-1.57484863 6.35770508 -1.39969727 5.65291016 -1.21923828 4.92675781 C-0.81181495 3.28475563 -0.4057482 1.64241692 0 0 Z " fill="#F2CA0B" transform="translate(113,91)"/>
<path d="M0 0 C3.85817949 1.5718509 6.110257 4.04458102 9 7 C10.34003247 8.26514044 11.69508522 9.5145065 13.0625 10.75 C13.71347656 11.34296875 14.36445312 11.9359375 15.03515625 12.546875 C17.06438445 14.04761633 18.53381312 14.5825608 21 15 C21 15.66 21 16.32 21 17 C22.32 17.33 23.64 17.66 25 18 C25 18.66 25 19.32 25 20 C25.99 20.33 26.98 20.66 28 21 C28.433125 21.45375 28.86625 21.9075 29.3125 22.375 C31.0702189 24.2292989 31.0702189 24.2292989 34.125 25.5625 C37 27 37 27 38 29 C40.33927984 29.80742148 40.33927984 29.80742148 43.125 30.4375 C46.55282428 31.30329067 49.4002978 32.18634553 52.625 33.6875 C56.88234119 35.34313269 60.49357044 35.27590385 65 35 C65.33 34.01 65.66 33.02 66 32 C68.5172508 33.07882177 69.95981389 33.95346784 71.77172852 36.05151367 C74.64247669 38.56180634 76.13327829 38.47880891 79.90234375 38.42578125 C81.03994141 38.41740234 82.17753906 38.40902344 83.34960938 38.40039062 C84.53361328 38.37138672 85.71761719 38.34238281 86.9375 38.3125 C88.11763672 38.30283203 89.29777344 38.29316406 90.51367188 38.28320312 C95.47848878 38.21857902 100.14474896 38.10953235 105 37 C105 36.67 105 36.34 105 36 C105.67804688 35.95101562 106.35609375 35.90203125 107.0546875 35.8515625 C113.49299341 35.33435787 119.69732977 34.40818879 126 33 C125 35 125 35 123.26928711 35.67016602 C122.15952515 35.95911743 122.15952515 35.95911743 121.02734375 36.25390625 C120.20943359 36.46853516 119.39152344 36.68316406 118.54882812 36.90429688 C117.2562207 37.23010742 117.2562207 37.23010742 115.9375 37.5625 C115.10283203 37.78357422 114.26816406 38.00464844 113.40820312 38.23242188 C85.39007828 45.46079235 55.57541643 41.15170935 30.48046875 27.0546875 C19.05209049 20.26950367 8.81812762 11.9581137 0 2 C0 1.34 0 0.68 0 0 Z " fill="#1B653C" transform="translate(26,184)"/>
<path d="M0 0 C2 3 2 3 1.7578125 5.48046875 C1.54898438 6.37378906 1.34015625 7.26710938 1.125 8.1875 C0.92132813 9.08855469 0.71765625 9.98960938 0.5078125 10.91796875 C0.34023437 11.60503906 0.17265625 12.29210937 0 13 C0.33 13 0.66 13 1 13 C1 14.98 1 16.96 1 19 C1.66 19 2.32 19 3 19 C3.33 17.35 3.66 15.7 4 14 C5.11690789 17.35072367 4.86440937 18.43390352 4.0390625 21.78125 C3.81476563 22.70550781 3.59046875 23.62976563 3.359375 24.58203125 C3.11703125 25.54496094 2.8746875 26.50789063 2.625 27.5 C2.39039062 28.46292969 2.15578125 29.42585938 1.9140625 30.41796875 C1.03721507 33.99012561 0.16357852 37.50926444 -1 41 C-1.99 41 -2.98 41 -4 41 C-3.67 39.35 -3.34 37.7 -3 36 C-2.34 36 -1.68 36 -1 36 C-1 34.02 -1 32.04 -1 30 C-3.49361571 31.20381448 -5.68143083 32.45428722 -8 34 C-8.72382467 36.05925139 -8.72382467 36.05925139 -9 38 C-8.34 38.33 -7.68 38.66 -7 39 C-13.625 42 -13.625 42 -17 42 C-16.56558594 41.42121094 -16.13117188 40.84242188 -15.68359375 40.24609375 C-15.12800781 39.50488281 -14.57242188 38.76367188 -14 38 C-13.51660156 37.37222656 -13.03320312 36.74445313 -12.53515625 36.09765625 C-8.00455602 29.83653498 -5.94789069 23.42633326 -4 16 C-3.773125 15.17371094 -3.54625 14.34742187 -3.3125 13.49609375 C-2.53965446 10.58182203 -2 8.02695914 -2 5 C-1.37400383 3.31763529 -0.71247732 1.6476038 0 0 Z " fill="#0D8242" transform="translate(104,93)"/>
<path d="M0 0 C1.98 0 3.96 0 6 0 C6.22151549 1.79008467 6.42682213 3.58218162 6.625 5.375 C6.74101562 6.37273437 6.85703125 7.37046875 6.9765625 8.3984375 C6.98816406 9.68621094 6.98816406 9.68621094 7 11 C6.34 11.66 5.68 12.32 5 13 C4.38714474 15.51006748 3.87737166 17.95951674 3.4375 20.5 C3.30674072 21.22034424 3.17598145 21.94068848 3.04125977 22.68286133 C2.20752138 27.40455917 1.58938364 32.09627299 1.30859375 36.88671875 C0.93257725 39.46171779 0.03676575 41.6225171 -1 44 C-10.90694006 44.7807571 -10.90694006 44.7807571 -15.0625 41.8125 C-16.89132461 39.1577546 -17.90540729 37.01012996 -19 34 C-21.1546704 29.87992078 -23.42066943 25.86899585 -26 22 C-26 20.68 -26 19.36 -26 18 C-26.66 18 -27.32 18 -28 18 C-28.12375 18.969375 -28.2475 19.93875 -28.375 20.9375 C-28.99863809 25.34815777 -29.98746506 29.66477759 -31 34 C-33 31 -33 31 -32.3203125 27.20703125 C-31.93495648 25.73869192 -31.53597227 24.27387656 -31.125 22.8125 C-30.92519531 22.06291016 -30.72539062 21.31332031 -30.51953125 20.54101562 C-30.02458964 18.69087675 -29.51379524 16.844992 -29 15 C-27.1862793 15.16796875 -27.1862793 15.16796875 -25 16 C-23.46020508 18.30078125 -23.46020508 18.30078125 -22.01953125 21.3125 C-21.23352539 22.92511719 -21.23352539 22.92511719 -20.43164062 24.5703125 C-19.63016602 26.26800781 -19.63016602 26.26800781 -18.8125 28 C-17.73696903 30.22979029 -16.6602131 32.45899029 -15.58203125 34.6875 C-14.87397339 36.17830078 -14.87397339 36.17830078 -14.15161133 37.69921875 C-13.1977202 39.90755485 -13.1977202 39.90755485 -12 41 C-10.48530552 41.23192865 -8.96245438 41.41215238 -7.4375 41.5625 C-6.61121094 41.64628906 -5.78492188 41.73007813 -4.93359375 41.81640625 C-3.97646484 41.90728516 -3.97646484 41.90728516 -3 42 C-2.86424561 41.25540527 -2.72849121 40.51081055 -2.58862305 39.74365234 C2.40223169 12.42595656 2.40223169 12.42595656 5 1 C3.35 1 1.7 1 0 1 C0 0.67 0 0.34 0 0 Z " fill="#145F37" transform="translate(190,91)"/>
<path d="M0 0 C1.73444522 2.60166784 2.45325329 4.10925318 3.25390625 7.01953125 C3.57584961 8.18258789 3.57584961 8.18258789 3.90429688 9.36914062 C4.12150391 10.17544922 4.33871094 10.98175781 4.5625 11.8125 C4.89411133 13.00456055 4.89411133 13.00456055 5.23242188 14.22070312 C11.37893353 36.67125475 9.33985737 61.44541161 1 83 C0.34 81.68 -0.32 80.36 -1 79 C-0.01 78.01 -0.01 78.01 1 77 C1.25406729 74.80000825 1.40524259 72.58758557 1.5 70.375 C1.87796602 63.79434161 2.91807716 58.24576852 5 52 C5.23389746 48.35866855 5.19036979 44.71058007 5.1875 41.0625 C5.18669434 40.02158203 5.18588867 38.98066406 5.18505859 37.90820312 C5.12815101 30.77132208 4.70948203 23.95501593 3 17 C2.83242187 16.27554688 2.66484375 15.55109375 2.4921875 14.8046875 C1.73841915 11.84943697 1.19013581 10.19013581 -1 8 C-1 5.16032769 -0.59732819 2.76264289 0 0 Z " fill="#14633B" transform="translate(217,71)"/>
<path d="M0 0 C0.66 0 1.32 0 2 0 C1.50873614 4.66269737 -0.59150207 7.62134688 -3.4375 11.1875 C-3.88923584 11.75847412 -4.34097168 12.32944824 -4.80639648 12.91772461 C-15.62941197 26.37453493 -31.1878934 40.48649816 -48 46 C-50.32421875 45.63671875 -50.32421875 45.63671875 -52 45 C-51.34 45 -50.68 45 -50 45 C-50 44.34 -50 43.68 -50 43 C-47.03 42.34 -44.06 41.68 -41 41 C-41 40.34 -41 39.68 -41 39 C-40.01 39 -39.02 39 -38 39 C-37.67 38.01 -37.34 37.02 -37 36 C-34.59245177 34.82876032 -32.37710325 34.07332563 -29.75 33.5625 C-29.1725 33.376875 -28.595 33.19125 -28 33 C-27.67 32.01 -27.34 31.02 -27 30 C-23.92650709 26.58500787 -20.9056201 24.34337206 -17 22 C-13.23222689 18.68077131 -11.02791232 15.58948577 -9 11 C-10.32 11.33 -11.64 11.66 -13 12 C-13 10.66666667 -13 9.33333333 -13 8 C-10.69 7.34 -8.38 6.68 -6 6 C-5.505 6.495 -5.505 6.495 -5 7 C-4.67 6.34 -4.34 5.68 -4 5 C-3.01 5 -2.02 5 -1 5 C-0.67 3.35 -0.34 1.7 0 0 Z " fill="#1A5E38" transform="translate(206,170)"/>
<path d="M0 0 C2.05859375 -0.328125 2.05859375 -0.328125 4.4375 -0.25 C5.61119141 -0.22679688 5.61119141 -0.22679688 6.80859375 -0.203125 C9 0 9 0 12 1 C12 1.66 12 2.32 12 3 C8.04 2.67 4.08 2.34 0 2 C-0.28875 3.65 -0.5775 5.3 -0.875 7 C-1.50709146 10.53334579 -2.22667195 13.97982628 -3.1875 17.4375 C-3.97448515 20.88812721 -3.84751984 21.80654525 -3 25 C-3.33 25.33 -3.66 25.66 -4 26 C2.42311174 25.33711658 7.60547682 24.77107963 11.9140625 19.640625 C14.32409417 15.99956996 15.12119176 13.21191761 14.6875 8.875 C14.3471875 7.451875 14.3471875 7.451875 14 6 C13.814375 5.21625 13.62875 4.4325 13.4375 3.625 C13.293125 3.08875 13.14875 2.5525 13 2 C15.34780249 3.68748304 16.7790271 5.09437336 17.4765625 7.953125 C17.86172569 13.75084467 16.13282087 17.43695435 12.71875 22.05078125 C9.41291717 25.7998962 5.95882339 28.03934233 1 29 C-0.58211573 29.06548492 -2.16670081 29.08578381 -3.75 29.0625 C-4.54921875 29.05347656 -5.3484375 29.04445313 -6.171875 29.03515625 C-6.77515625 29.02355469 -7.3784375 29.01195313 -8 29 C-9.4272704 26.14545919 -8.52501735 24.6936947 -7.63671875 21.66015625 C-7.17168945 20.0659082 -7.17168945 20.0659082 -6.69726562 18.43945312 C-6.36404297 17.32505859 -6.03082031 16.21066406 -5.6875 15.0625 C-5.36587891 13.95197266 -5.04425781 12.84144531 -4.71289062 11.69726562 C-2.26443679 3.39665518 -2.26443679 3.39665518 0 0 Z " fill="#17633B" transform="translate(51,98)"/>
<path d="M0 0 C0.33 0 0.66 0 1 0 C1.27036084 5.27203646 0.26305335 9.92523206 -1 15 C-1.66 15 -2.32 15 -3 15 C-2.814375 15.639375 -2.62875 16.27875 -2.4375 16.9375 C-2.293125 17.618125 -2.14875 18.29875 -2 19 C-2.33 19.33 -2.66 19.66 -3 20 C-4.35790949 26.69392004 -4.1475307 33.445729 -4.125 40.25 C-4.12886719 41.43335938 -4.13273438 42.61671875 -4.13671875 43.8359375 C-4.13542969 44.96773437 -4.13414063 46.09953125 -4.1328125 47.265625 C-4.13168457 48.29461914 -4.13055664 49.32361328 -4.12939453 50.38378906 C-4.11201974 53.11223793 -4.11201974 53.11223793 -3 56 C-2.96125079 57.66621616 -2.9549714 59.33394172 -3 61 C-2.34 61 -1.68 61 -1 61 C-0.67 63.64 -0.34 66.28 0 69 C-1.32 69 -2.64 69 -4 69 C-9.51271155 46.68664374 -8.41302492 22.79250701 -1 1 C-0.67 0.67 -0.34 0.34 0 0 Z " fill="#17613B" transform="translate(7,72)"/>
<path d="M0 0 C0.33 0 0.66 0 1 0 C1.28762751 8.98037007 0.20348392 14.97516707 -4 23 C-2.25328412 23.79356801 -2.25328412 23.79356801 0 24 C1.68756133 23.03567924 3.35666496 22.03789581 5 21 C5.66 21.33 6.32 21.66 7 22 C4.56002782 24.92488779 4.56002782 24.92488779 2.01953125 25.265625 C1.29121094 25.26046875 0.56289062 25.2553125 -0.1875 25.25 C-5.35763732 25.6036576 -7.71148771 27.92665153 -11.17578125 31.6015625 C-11.77777344 32.06304687 -12.37976563 32.52453125 -13 33 C-13.92377441 32.75165405 -13.92377441 32.75165405 -14.86621094 32.49829102 C-17.49346356 31.8847644 -18.51190328 32.37878376 -20.96484375 33.42578125 C-26.81327245 35.53188685 -32.41269847 35.33207038 -38.5625 35.1875 C-39.66658203 35.17396484 -40.77066406 35.16042969 -41.90820312 35.14648438 C-44.60599272 35.11144815 -47.30272636 35.06232591 -50 35 C-50 34.67 -50 34.34 -50 34 C-49.09459473 33.98598145 -49.09459473 33.98598145 -48.17089844 33.97167969 C-26.30932828 33.82797193 -26.30932828 33.82797193 -8 23 C-2.48914271 16.07971629 -0.90833844 8.62921517 0 0 Z " fill="#0E5A31" transform="translate(79,101)"/>
<path d="M0 0 C2.5172508 1.07882177 3.95981389 1.95346784 5.77172852 4.05151367 C8.64247669 6.56180634 10.13327829 6.47880891 13.90234375 6.42578125 C15.03994141 6.41740234 16.17753906 6.40902344 17.34960938 6.40039062 C18.53361328 6.37138672 19.71761719 6.34238281 20.9375 6.3125 C22.11763672 6.30283203 23.29777344 6.29316406 24.51367188 6.28320312 C29.47848878 6.21857902 34.14474896 6.10953235 39 5 C39 4.67 39 4.34 39 4 C40.01707031 3.92652344 40.01707031 3.92652344 41.0546875 3.8515625 C47.49299341 3.33435787 53.69732977 2.40818879 60 1 C59 3 59 3 57.26928711 3.67016602 C56.5294458 3.86280029 55.78960449 4.05543457 55.02734375 4.25390625 C54.20943359 4.46853516 53.39152344 4.68316406 52.54882812 4.90429688 C51.68708984 5.12150391 50.82535156 5.33871094 49.9375 5.5625 C49.10283203 5.78357422 48.26816406 6.00464844 47.40820312 6.23242188 C37.83579591 8.70199848 28.79346796 9.1819348 18.9375 9.1875 C17.79216797 9.19974609 16.64683594 9.21199219 15.46679688 9.22460938 C9.58552949 9.234814 4.54047742 9.03445687 -1 7 C-0.67 4.69 -0.34 2.38 0 0 Z " fill="#0C5C2E" transform="translate(92,216)"/>
<path d="M0 0 C20.25068554 4.32877062 37.15636624 18.29512635 51 33 C50.505 33.99 50.505 33.99 50 35 C48.2925002 33.71937515 46.62626404 32.38232443 45 31 C45 30.34 45 29.68 45 29 C44.360625 28.731875 43.72125 28.46375 43.0625 28.1875 C41 27 41 27 40 24 C37.60931266 22.89363605 37.60931266 22.89363605 35 22 C34.01 21.34 33.02 20.68 32 20 C30.02 20.99 30.02 20.99 28 22 C28.33 20.02 28.66 18.04 29 16 C27.68 16.33 26.36 16.66 25 17 C25 16.01 25 15.02 25 14 C23.865625 13.54625 22.73125 13.0925 21.5625 12.625 C18 11 18 11 17 9 C11.64213601 5.99865825 5.9658523 4.3016405 0 3 C0 2.01 0 1.02 0 0 Z " fill="#146139" transform="translate(148,6)"/>
<path d="M0 0 C-0.66 0.66 -1.32 1.32 -2 2 C-3.92578125 1.828125 -3.92578125 1.828125 -6.3125 1.25 C-17.8830562 -1.36808439 -28.95589469 -2.27732095 -40.8125 -2.125 C-42.19856112 -2.11493373 -43.58462946 -2.10581442 -44.97070312 -2.09765625 C-48.31399273 -2.07435806 -51.65689731 -2.04164862 -55 -2 C-55.66 -0.68 -56.32 0.64 -57 2 C-57.33 1.34 -57.66 0.68 -58 0 C-59.32 0.33 -60.64 0.66 -62 1 C-62 0.34 -62 -0.32 -62 -1 C-62.66 -1.33 -63.32 -1.66 -64 -2 C-42.03851903 -6.89327427 -21.69153233 -5.53110026 0 0 Z " fill="#1B663E" transform="translate(148,5)"/>
<path d="M0 0 C0 0.66 0 1.32 0 2 C-0.68707031 2.15855469 -1.37414062 2.31710938 -2.08203125 2.48046875 C-7.85411151 3.83813758 -7.85411151 3.83813758 -12.125 7.6875 C-12.41375 8.450625 -12.7025 9.21375 -13 10 C-16.3 9.67 -19.6 9.34 -23 9 C-23 9.66 -23 10.32 -23 11 C-23.99 11 -24.98 11 -26 11 C-26.33 11.99 -26.66 12.98 -27 14 C-30.50345775 16.62759331 -33.88919706 18.52432715 -38 20 C-38.928125 20.37125 -39.85625 20.7425 -40.8125 21.125 C-41.534375 21.41375 -42.25625 21.7025 -43 22 C-33.47767146 11.52543861 -14.66323114 -1.09974234 0 0 Z " fill="#16683C" transform="translate(83,5)"/>
<path d="M0 0 C0.33 0 0.66 0 1 0 C1.23509196 4.81938524 0.45184478 8.46298506 -1 13 C-0.34 13.33 0.32 13.66 1 14 C0.319375 14.70125 -0.36125 15.4025 -1.0625 16.125 C-3.29402315 18.79675633 -3.29402315 18.79675633 -2.80078125 21.69140625 C-1.2036119 28.29044256 1.07081417 34.42968109 5 40 C8.8061303 41.56332332 11.95858358 41.5773452 16 41 C16 41.33 16 41.66 16 42 C11.71 42 7.42 42 3 42 C1.76302083 39.23307292 0.52604167 36.46614583 -0.7109375 33.69921875 C-1.98242758 30.87254793 -1.98242758 30.87254793 -4 28 C-4.33 30.64 -4.66 33.28 -5 36 C-5.99 36 -6.98 36 -8 36 C-6.79766561 23.73618925 -3.23037967 11.85565737 0 0 Z " fill="#1F6E33" transform="translate(124,92)"/>
<path d="M0 0 C3.93743833 -0.05797565 7.87476719 -0.09358789 11.8125 -0.125 C12.93205078 -0.14175781 14.05160156 -0.15851563 15.20507812 -0.17578125 C16.27822266 -0.18222656 17.35136719 -0.18867187 18.45703125 -0.1953125 C19.9416687 -0.21102295 19.9416687 -0.21102295 21.45629883 -0.22705078 C24 0 24 0 27 2 C26.25838623 2.0093457 25.51677246 2.01869141 24.75268555 2.02832031 C21.39694286 2.08195751 18.04260438 2.16561793 14.6875 2.25 C13.52025391 2.26417969 12.35300781 2.27835937 11.15039062 2.29296875 C10.03212891 2.32519531 8.91386719 2.35742188 7.76171875 2.390625 C6.2142395 2.4220459 6.2142395 2.4220459 4.63549805 2.45410156 C1.90240801 2.77304791 1.90240801 2.77304791 0.16723633 4.79199219 C-1.30387853 7.57483318 -1.37869468 10.17303083 -1.6171875 13.2734375 C-2.37626469 18.67992607 -4.28294324 23.8328571 -6 29 C-6.33 29 -6.66 29 -7 29 C-6.85485591 27.52076554 -6.70883578 26.04161704 -6.5625 24.5625 C-6.47355469 23.655 -6.38460937 22.7475 -6.29296875 21.8125 C-5.94832039 18.50387577 -5.52870813 15.2070024 -5.0859375 11.91015625 C-4.87553636 9.77581403 -4.87553636 9.77581403 -6 7 C-5.195625 6.21625 -4.39125 5.4325 -3.5625 4.625 C-1.01309583 2.28017144 -1.01309583 2.28017144 0 0 Z " fill="#18643B" transform="translate(41,89)"/>
<path d="M0 0 C4.29 0 8.58 0 13 0 C13.35191406 1.47146484 13.35191406 1.47146484 13.7109375 2.97265625 C15.00914207 7.51637225 17.24884522 11.37947316 19.625 15.4375 C20.04523438 16.16904297 20.46546875 16.90058594 20.8984375 17.65429688 C21.92555881 19.44008734 22.96184081 21.22060368 24 23 C24.99 17.72 25.98 12.44 27 7 C27.66 7 28.32 7 29 7 C29.33 6.01 29.66 5.02 30 4 C28.33333333 23.66666667 28.33333333 23.66666667 24 28 C23.01661361 26.27318206 22.03398996 24.5459259 21.05493164 22.81665039 C20.22350248 21.35000869 19.38801675 19.88565955 18.54858398 18.42358398 C16.24796144 14.37831145 14.30002465 10.38742549 12.5625 6.0625 C11.57701871 3.71763073 11.57701871 3.71763073 10 2 C6.61027137 0.89282857 3.54090341 0.76623162 0 1 C0 0.67 0 0.34 0 0 Z " fill="#1A623E" transform="translate(156,91)"/>
<path d="M0 0 C1.98 0 3.96 0 6 0 C6.22151549 1.79008467 6.42682213 3.58218162 6.625 5.375 C6.74101562 6.37273437 6.85703125 7.37046875 6.9765625 8.3984375 C6.98429688 9.25695312 6.99203125 10.11546875 7 11 C6.34 11.66 5.68 12.32 5 13 C4.38714474 15.51006748 3.87737166 17.95951674 3.4375 20.5 C3.30674072 21.22034424 3.17598145 21.94068848 3.04125977 22.68286133 C2.20019778 27.44603483 1.6402861 32.18224676 1.25 37.00390625 C0.93120324 39.54929916 0.14422386 41.71155228 -1 44 C-3.31 43.67 -5.62 43.34 -8 43 C-8 42.67 -8 42.34 -8 42 C-6.35 42 -4.7 42 -3 42 C-2.86424561 41.25540527 -2.72849121 40.51081055 -2.58862305 39.74365234 C2.40223169 12.42595656 2.40223169 12.42595656 5 1 C3.35 1 1.7 1 0 1 C0 0.67 0 0.34 0 0 Z " fill="#1D6641" transform="translate(190,91)"/>
<path d="M0 0 C10.50909091 4.01818182 10.50909091 4.01818182 12 7 C14.33927984 7.80742148 14.33927984 7.80742148 17.125 8.4375 C20.55282428 9.30329067 23.4002978 10.18634553 26.625 11.6875 C30.88234119 13.34313269 34.49357044 13.27590385 39 13 C39 14.32 39 15.64 39 17 C25.60174587 15.16799382 12.27689102 10.58986924 1 3 C0.67 2.01 0.34 1.02 0 0 Z " fill="#1A5635" transform="translate(52,206)"/>
<path d="M0 0 C1 2 1 2 0.0625 5.125 C-0.4634375 6.548125 -0.4634375 6.548125 -1 8 C-2.32 7.34 -3.64 6.68 -5 6 C-4.01 5.01 -3.02 4.02 -2 3 C-8.12135734 2.57783742 -11.15026442 2.87256546 -16 7 C-17.89083826 9.08589316 -19.71202147 11.2031256 -21.484375 13.390625 C-21.98453125 13.92171875 -22.4846875 14.4528125 -23 15 C-23.66 15 -24.32 15 -25 15 C-22.67583367 10.18565545 -20.18065219 7.32308251 -16 4 C-15.67 3.34 -15.34 2.68 -15 2 C-10.29904739 -0.72958539 -5.25280812 -0.18359329 0 0 Z " fill="#116739" transform="translate(149,90)"/>
<path d="M0 0 C0 3.92823101 -1.51754449 5.06618894 -4 8 C-4.33 8.66 -4.66 9.32 -5 10 C-5.99 10.33 -6.98 10.66 -8 11 C-9.68538601 12.99665314 -9.68538601 12.99665314 -11 15 C-10.67 15.598125 -10.34 16.19625 -10 16.8125 C-9 19 -9 19 -9 22 C-8.34 22 -7.68 22 -7 22 C-3.6160287 24.76870379 -2.53776121 26.6979103 -2 31 C-1.67516582 32.33542939 -1.3449145 33.66961551 -1 35 C-1.66 35 -2.32 35 -3 35 C-4.71120766 32.11756577 -6.38951872 29.21726135 -8.0625 26.3125 C-8.54783203 25.49587891 -9.03316406 24.67925781 -9.53320312 23.83789062 C-9.98759766 23.04189453 -10.44199219 22.24589844 -10.91015625 21.42578125 C-11.33433838 20.69786377 -11.75852051 19.96994629 -12.19555664 19.2199707 C-13.22815893 16.37036446 -12.94611276 14.85679902 -12 12 C-10.78491211 10.33081055 -10.78491211 10.33081055 -9.27734375 8.88671875 C-8.73916016 8.36142578 -8.20097656 7.83613281 -7.64648438 7.29492188 C-7.08251953 6.76447266 -6.51855469 6.23402344 -5.9375 5.6875 C-5.08575195 4.86282227 -5.08575195 4.86282227 -4.21679688 4.02148438 C-2.82009075 2.67172635 -1.41121163 1.33458475 0 0 Z " fill="#15653B" transform="translate(143,97)"/>
<path d="M0 0 C0.99 0.33 1.98 0.66 3 1 C3 1.99 3 2.98 3 4 C3.66 4 4.32 4 5 4 C5.09796875 4.62648437 5.1959375 5.25296875 5.296875 5.8984375 C5.44640625 6.71570313 5.5959375 7.53296875 5.75 8.375 C5.88921875 9.18710938 6.0284375 9.99921875 6.171875 10.8359375 C7.23834655 13.62284901 8.37990587 13.77215196 11 15 C11.73075648 17.3140622 12.40138258 19.64828869 13 22 C13.66 22.33 14.32 22.66 15 23 C15.33 23.99 15.66 24.98 16 26 C8.20615211 22.99843057 4.40602602 12.14183932 0.84765625 5.09375 C0 3 0 3 0 0 Z " fill="#185F38" transform="translate(8,154)"/>
<path d="M0 0 C3.75946912 3.52327211 6.48597756 7.00115077 9.1875 11.4375 C9.86167969 12.52933594 10.53585938 13.62117188 11.23046875 14.74609375 C12.88971742 17.79720665 14.02236224 20.67603163 15 24 C14.01 24 13.02 24 12 24 C12.33 23.34 12.66 22.68 13 22 C12.34 22 11.68 22 11 22 C10.34 19.36 9.68 16.72 9 14 C6.69 13.67 4.38 13.34 2 13 C2.33 12.01 2.66 11.02 3 10 C3.66 10 4.32 10 5 10 C4.01 9.67 3.02 9.34 2 9 C1.26953125 6.93359375 1.26953125 6.93359375 0.8125 4.4375 C0.65394531 3.61121094 0.49539062 2.78492188 0.33203125 1.93359375 C0.16767578 0.97646484 0.16767578 0.97646484 0 0 Z " fill="#0F6537" transform="translate(200,42)"/>
<path d="M0 0 C-0.33 0.66 -0.66 1.32 -1 2 C-2.36125 1.87625 -2.36125 1.87625 -3.75 1.75 C-7.07274053 1.69590532 -7.07274053 1.69590532 -9.3125 3.875 C-11.02950671 5.88733802 -11.02950671 5.88733802 -12 8 C-10.35 8.33 -8.7 8.66 -7 9 C-7 9.33 -7 9.66 -7 10 C-8.98 10 -10.96 10 -13 10 C-13.12117188 10.71027344 -13.24234375 11.42054687 -13.3671875 12.15234375 C-13.53476563 13.07144531 -13.70234375 13.99054688 -13.875 14.9375 C-14.03742188 15.85402344 -14.19984375 16.77054688 -14.3671875 17.71484375 C-14.68042969 18.84599609 -14.68042969 18.84599609 -15 20 C-15.66 20.33 -16.32 20.66 -17 21 C-16.56196115 13.49292032 -15.60677071 7.91015607 -11.375 1.5625 C-7.75286502 -0.82048354 -4.21453704 -0.32419516 0 0 Z " fill="#20663F" transform="translate(106,90)"/>
<path d="M0 0 C5.28 0.33 10.56 0.66 16 1 C16 1.66 16 2.32 16 3 C12.37 3 8.74 3 5 3 C4.690625 4.711875 4.38125 6.42375 4.0625 8.1875 C3.40974758 11.79939671 2.72994559 15.40288072 2 19 C1.67 19 1.34 19 1 19 C0.67 15.37 0.34 11.74 0 8 C0.66 8 1.32 8 2 8 C2.77242269 6.16299211 2.77242269 6.16299211 3 4 C1.62485459 2.2912354 1.62485459 2.2912354 0 1 C0 0.67 0 0.34 0 0 Z " fill="#1C8028" transform="translate(108,88)"/>
<path d="M0 0 C0.66 0.33 1.32 0.66 2 1 C1.34 2.32 0.68 3.64 0 5 C-0.66 5 -1.32 5 -2 5 C-2.33 5.99 -2.66 6.98 -3 8 C-3.33 8.66 -3.66 9.32 -4 10 C-4.99 10 -5.98 10 -7 10 C-7 10.66 -7 11.32 -7 12 C-9 14 -9 14 -11 15 C-11 15.66 -11 16.32 -11 17 C-12.65 17.66 -14.3 18.32 -16 19 C-14.35437425 14.95896636 -11.50767109 12.06698427 -8.5625 8.9375 C-8.07201172 8.40833984 -7.58152344 7.87917969 -7.07617188 7.33398438 C-4.76143767 4.84431749 -2.42853755 2.37914357 0 0 Z " fill="#1C6540" transform="translate(38,27)"/>
<path d="M0 0 C0.66 0 1.32 0 2 0 C1.37444261 5.63001655 -1.30559555 7.63621106 -5.5625 11.0625 C-6.366875 11.701875 -7.17125 12.34125 -8 13 C-9.0173873 13.98230498 -10.02596117 14.97469597 -11 16 C-10.34 14.35 -9.68 12.7 -9 11 C-10.32 11.33 -11.64 11.66 -13 12 C-13 10.66666667 -13 9.33333333 -13 8 C-10.69 7.34 -8.38 6.68 -6 6 C-5.67 6.33 -5.34 6.66 -5 7 C-4.67 6.34 -4.34 5.68 -4 5 C-3.01 5 -2.02 5 -1 5 C-0.67 3.35 -0.34 1.7 0 0 Z " fill="#116D3C" transform="translate(206,170)"/>
<path d="M0 0 C0.33 0.66 0.66 1.32 1 2 C1.66 2 2.32 2 3 2 C3.33 1.34 3.66 0.68 4 0 C3.67 2.64 3.34 5.28 3 8 C2.34 8 1.68 8 1 8 C1 8.66 1 9.32 1 10 C0.01 10.33 -0.98 10.66 -2 11 C-2.99 10.01 -3.98 9.02 -5 8 C-3.25 4.125 -3.25 4.125 -1 3 C-0.67 2.01 -0.34 1.02 0 0 Z " fill="#0B8741" transform="translate(100,121)"/>
<path d="M0 0 C3.63 0 7.26 0 11 0 C10.44687265 4.02992782 9.8441938 8.02022924 9 12 C8.67 12 8.34 12 8 12 C7.82299645 7.39790775 7.89185433 5.21629134 10 1 C7.03 1 4.06 1 1 1 C0.67 4.96 0.34 8.92 0 13 C-0.66 13 -1.32 13 -2 13 C-2.33 13.66 -2.66 14.32 -3 15 C-2.44854729 9.76119922 -1.57077907 5.02649303 0 0 Z " fill="#AFC533" transform="translate(113,91)"/>
<path d="M0 0 C0.66 0 1.32 0 2 0 C2.88336837 2.4667645 3.1312406 3.63859372 2.22265625 6.140625 C1.83980469 6.83671875 1.45695313 7.5328125 1.0625 8.25 C0.68222656 8.95640625 0.30195313 9.6628125 -0.08984375 10.390625 C-0.39019531 10.92171875 -0.69054687 11.4528125 -1 12 C-1.66 12 -2.32 12 -3 12 C-3.33 9.03 -3.66 6.06 -4 3 C-3.34 3 -2.68 3 -2 3 C-1.67 2.34 -1.34 1.68 -1 1 C-0.67 0.67 -0.34 0.34 0 0 Z " fill="#156E3E" transform="translate(212,157)"/>
<path d="M0 0 C6.73304432 4.62661705 12.33998772 10.13121677 18 16 C17.67 16.66 17.34 17.32 17 18 C15.2925002 16.71937515 13.62626404 15.38232443 12 14 C12 13.34 12 12.68 12 12 C11.360625 11.731875 10.72125 11.46375 10.0625 11.1875 C8 10 8 10 7 7 C5.7934375 6.566875 5.7934375 6.566875 4.5625 6.125 C2 5 2 5 0.6875 2.375 C0.460625 1.59125 0.23375 0.8075 0 0 Z " fill="#1E603F" transform="translate(181,23)"/>
<path d="M0 0 C0.99 0 1.98 0 3 0 C3 0.66 3 1.32 3 2 C2.34 2 1.68 2 1 2 C0.34 3.98 -0.32 5.96 -1 8 C-1.66 8 -2.32 8 -3 8 C-3.28875 8.7425 -3.5775 9.485 -3.875 10.25 C-4.82302644 12.56739797 -5.84845911 14.77917115 -7 17 C-7.66 17 -8.32 17 -9 17 C-7.69281227 12.61669388 -5.99961987 8.99294509 -3.5625 5.125 C-2.96566406 4.15820312 -2.36882813 3.19140625 -1.75390625 2.1953125 C-1.17511719 1.47085938 -0.59632812 0.74640625 0 0 Z " fill="#276642" transform="translate(20,47)"/>
<path d="M0 0 C-13.71428571 6.28571429 -13.71428571 6.28571429 -20 4 C-20.33 3.34 -20.66 2.68 -21 2 C-20.28714844 1.95101562 -19.57429687 1.90203125 -18.83984375 1.8515625 C-12.3309085 1.36332909 -12.3309085 1.36332909 -6 -0.125 C-3 -1 -3 -1 0 0 Z " fill="#175F36" transform="translate(152,218)"/>
<path d="M0 0 C3.79379058 1.49041773 5.68343758 3.69062512 8 7 C8 7.66 8 8.32 8 9 C3.545 8.01 3.545 8.01 -1 7 C-0.67 4.69 -0.34 2.38 0 0 Z " fill="#0B6C36" transform="translate(92,216)"/>
<path d="M0 0 C2 3 2 3 1.57421875 5.7421875 C1.28160156 6.77601562 0.98898438 7.80984375 0.6875 8.875 C-0.33677472 12.57351232 -1.29670281 16.22587053 -2 20 C-2.66 20 -3.32 20 -4 20 C-3.52232146 15.90561252 -3.03446577 11.99008224 -2 8 C-2 7.01 -2 6.02 -2 5 C-1.37400383 3.31763529 -0.71247732 1.6476038 0 0 Z " fill="#186D3D" transform="translate(104,93)"/>
<path d="M0 0 C0.33 0 0.66 0 1 0 C1.23509196 4.81938524 0.45184478 8.46298506 -1 13 C-0.34 13.33 0.32 13.66 1 14 C0.0409375 15.11375 0.0409375 15.11375 -0.9375 16.25 C-2.78333407 18.7111121 -3.56069174 20.03466926 -4 23 C-4.66 22.67 -5.32 22.34 -6 22 C-4.02 14.74 -2.04 7.48 0 0 Z " fill="#4D8224" transform="translate(124,92)"/>
<path d="M0 0 C0.33 0 0.66 0 1 0 C1 2.64 1 5.28 1 8 C0.34 8 -0.32 8 -1 8 C-1 8.99 -1 9.98 -1 11 C-1.66 11 -2.32 11 -3 11 C-3.33 12.32 -3.66 13.64 -4 15 C-4.66 15 -5.32 15 -6 15 C-5.25 10.25 -5.25 10.25 -3 8 C-2.30643577 5.67451993 -1.63850788 3.34119555 -1 1 C-0.67 0.67 -0.34 0.34 0 0 Z " fill="#FBC907" transform="translate(116,109)"/>
<path d="M0 0 C0.99 0 1.98 0 3 0 C3.33 0.66 3.66 1.32 4 2 C4.66 2 5.32 2 6 2 C6.33 3.65 6.66 5.3 7 7 C6.01 7.33 5.02 7.66 4 8 C4 7.34 4 6.68 4 6 C2.35 6 0.7 6 -1 6 C-1.33 5.01 -1.66 4.02 -2 3 C-1.34 2.01 -0.68 1.02 0 0 Z " fill="#0E703C" transform="translate(210,64)"/>
<path d="M0 0 C0.33 0 0.66 0 1 0 C0.45484328 7.08703739 -1.60918605 13.32796106 -4 20 C-4.66 18.68 -5.32 17.36 -6 16 C-5.34 15.34 -4.68 14.68 -4 14 C-3.62276444 11.66371161 -3.494845 9.35695314 -3.34375 6.99609375 C-3.2303125 6.33738281 -3.116875 5.67867187 -3 5 C-2.34 4.67 -1.68 4.34 -1 4 C-0.34786708 1.97536745 -0.34786708 1.97536745 0 0 Z " fill="#266243" transform="translate(222,134)"/>
<path d="M0 0 C0.66 0.33 1.32 0.66 2 1 C-0.22138831 3.55459656 -1.69502266 4.38317413 -5 5 C-6.58692639 5.07866959 -8.17678249 5.10784114 -9.765625 5.09765625 C-10.65507813 5.09443359 -11.54453125 5.09121094 -12.4609375 5.08789062 C-13.38132812 5.07951172 -14.30171875 5.07113281 -15.25 5.0625 C-16.18585938 5.05798828 -17.12171875 5.05347656 -18.0859375 5.04882812 C-20.39069041 5.03706918 -22.69531227 5.02063426 -25 5 C-25 4.67 -25 4.34 -25 4 C-23.78183594 3.96261719 -22.56367187 3.92523438 -21.30859375 3.88671875 C-19.6848671 3.82101883 -18.06117051 3.75457291 -16.4375 3.6875 C-15.63763672 3.66494141 -14.83777344 3.64238281 -14.01367188 3.61914062 C-8.62527506 3.3772126 -4.88245175 2.24328864 0 0 Z " fill="#0D6739" transform="translate(89,131)"/>
<path d="M0 0 C0.33 1.32 0.66 2.64 1 4 C3.64 4 6.28 4 9 4 C9.33 2.68 9.66 1.36 10 0 C10.33 0 10.66 0 11 0 C11 1.98 11 3.96 11 6 C7.04 6 3.08 6 -1 6 C-0.67 4.02 -0.34 2.04 0 0 Z " fill="#B3C12E" transform="translate(104,128)"/>
<path d="M0 0 C0.33 0 0.66 0 1 0 C1.26848469 8.38268854 0.9969737 14.92095392 -4 22 C-4.66 22 -5.32 22 -6 22 C-5.731875 21.360625 -5.46375 20.72125 -5.1875 20.0625 C-2.58865299 13.36021033 -0.65315472 7.18470189 0 0 Z " fill="#1B663D" transform="translate(79,101)"/>
<path d="M0 0 C0.99 0.33 1.98 0.66 3 1 C3 1.99 3 2.98 3 4 C3.66 4 4.32 4 5 4 C7.27678571 10.96428571 7.27678571 10.96428571 6 15 C4.99267601 13.06629769 3.99436712 11.12789694 3 9.1875 C2.443125 8.10855469 1.88625 7.02960938 1.3125 5.91796875 C0 3 0 3 0 0 Z " fill="#216641" transform="translate(8,154)"/>
<path d="M0 0 C0.66 0 1.32 0 2 0 C2 0.66 2 1.32 2 2 C4.33214148 3.20628008 6.49642139 4.1654738 9 5 C8.67 6.32 8.34 7.64 8 9 C7.38125 8.2265625 7.38125 8.2265625 6.75 7.4375 C6.1725 6.963125 5.595 6.48875 5 6 C2.83700789 6.22757731 2.83700789 6.22757731 1 7 C0.67 4.69 0.34 2.38 0 0 Z " fill="#096C38" transform="translate(191,35)"/>
<path d="M0 0 C0.66 0 1.32 0 2 0 C2.268125 0.9075 2.53625 1.815 2.8125 2.75 C3.89576294 5.71471963 4.98359457 7.6169754 7 10 C6.67 10.66 6.34 11.32 6 12 C4.68 10.35 3.36 8.7 2 7 C1.34 7.66 0.68 8.32 0 9 C-0.84454356 5.62182575 -1.10844919 3.32534757 0 0 Z " fill="#0F8446" transform="translate(162,109)"/>
<path d="M0 0 C0 0.66 0 1.32 0 2 C-4.873261 3.5912689 -8.80790596 4.21192221 -14 4 C-9.2157506 0.8105004 -5.77575443 -0.26863974 0 0 Z " fill="#1A683E" transform="translate(83,5)"/>
<path d="M0 0 C0.99 0 1.98 0 3 0 C3 0.66 3 1.32 3 2 C1.42466914 2.86883706 -0.16064509 3.71959068 -1.75 4.5625 C-2.63171875 5.03816406 -3.5134375 5.51382813 -4.421875 6.00390625 C-7.20701188 7.07998186 -8.26980214 7.06528748 -11 6 C-10.34 6 -9.68 6 -9 6 C-9 5.34 -9 4.68 -9 4 C-4.545 3.01 -4.545 3.01 0 2 C0 1.34 0 0.68 0 0 Z " fill="#135930" transform="translate(165,209)"/>
<path d="M0 0 C1.23922223 3.71766668 0.57018942 5.43889537 -0.4375 9.1875 C-0.72496094 10.27417969 -1.01242188 11.36085938 -1.30859375 12.48046875 C-1.65083984 13.72763672 -1.65083984 13.72763672 -2 15 C-2.33 15 -2.66 15 -3 15 C-3.35050464 9.158256 -3.16727335 5.1468192 0 0 Z " fill="#2B7F20" transform="translate(108,107)"/>
<path d="M0 0 C0.33 0 0.66 0 1 0 C1.36263859 5.8022175 0.25684543 9.63999211 -2 15 C-3.11563018 11.62953982 -2.86843709 9.25980759 -2.125 5.8125 C-1.94195312 4.93207031 -1.75890625 4.05164063 -1.5703125 3.14453125 C-1 1 -1 1 0 0 Z " fill="#136738" transform="translate(92,96)"/>
<path d="M0 0 C2.97 0 5.94 0 9 0 C8.34 2.31 7.68 4.62 7 7 C5.68 6.34 4.36 5.68 3 5 C3.99 4.01 4.98 3.02 6 2 C3.03 1.505 3.03 1.505 0 1 C0 0.67 0 0.34 0 0 Z " fill="#1D7245" transform="translate(141,91)"/>
<path d="M0 0 C1.32 1.65 2.64 3.3 4 5 C4.33 3.35 4.66 1.7 5 0 C5.33 0 5.66 0 6 0 C6.1953125 6.0546875 6.1953125 6.0546875 6 8 C5.34 8.66 4.68 9.32 4 10 C0 3.375 0 3.375 0 0 Z " fill="#0D5330" transform="translate(176,109)"/>
<path d="M0 0 C3.39417765 3.12621626 5.6062718 5.56541027 7 10 C5.35 9.67 3.7 9.34 2 9 C1.34 6.03 0.68 3.06 0 0 Z " fill="#226440" transform="translate(200,42)"/>
<path d="M0 0 C0.99 0.33 1.98 0.66 3 1 C3.33 3.31 3.66 5.62 4 8 C1.525 7.01 1.525 7.01 -1 6 C-1 5.01 -1 4.02 -1 3 C-0.34 3 0.32 3 1 3 C0.67 2.01 0.34 1.02 0 0 Z " fill="#027437" transform="translate(27,178)"/>
<path d="M0 0 C0.33 0 0.66 0 1 0 C0.125 7.625 0.125 7.625 -1 11 C-1.99 11 -2.98 11 -4 11 C-3.67 9.35 -3.34 7.7 -3 6 C-2.34 6 -1.68 6 -1 6 C-0.67 4.02 -0.34 2.04 0 0 Z " fill="#268326" transform="translate(104,123)"/>
<path d="M0 0 C0.33 0.66 0.66 1.32 1 2 C-0.43775696 5.21783702 -2.04417512 8.06626269 -4 11 C-4.66 10.34 -5.32 9.68 -6 9 C-3.375 2.25 -3.375 2.25 0 0 Z " fill="#118746" transform="translate(94,90)"/>
<path d="M0 0 C1.11375 0.3403125 1.11375 0.3403125 2.25 0.6875 C1.92 1.6775 1.59 2.6675 1.25 3.6875 C-1.39 3.3575 -4.03 3.0275 -6.75 2.6875 C-4.29511132 0.41445492 -3.41240272 -0.38777304 0 0 Z " fill="#19653B" transform="translate(89.75,219.3125)"/>
<path d="M0 0 C4.3890815 0.51035831 7.33708062 1.52214277 11 4 C9.4375 4.75 9.4375 4.75 7 5 C4.49713591 3.86915563 2.32992278 2.47860484 0 1 C0 0.67 0 0.34 0 0 Z " fill="#0F773C" transform="translate(59,209)"/>
<path d="M0 0 C-0.33 0.99 -0.66 1.98 -1 3 C-2.875 3.625 -2.875 3.625 -5 4 C-5.99 4.33 -6.98 4.66 -8 5 C-8 4.01 -8 3.02 -8 2 C-7.34 2 -6.68 2 -6 2 C-6 1.34 -6 0.68 -6 0 C-3 -1 -3 -1 0 0 Z " fill="#067E3A" transform="translate(105,120)"/>
<path d="M0 0 C1.45606519 4.52092968 0.27032841 7.51648796 -1 12 C-1.33 12 -1.66 12 -2 12 C-2 8.37 -2 4.74 -2 1 C-1.34 0.67 -0.68 0.34 0 0 Z " fill="#CACC23" transform="translate(117,116)"/>
<path d="M0 0 C3 1 3 1 4.1875 2.75 C5.10819096 5.29960574 5.14948718 7.30923081 5 10 C1.55783328 7.3401439 1.00495326 4.09711714 0 0 Z " fill="#0A6134" transform="translate(162,106)"/>
<path d="M0 0 C2.97 0 5.94 0 9 0 C8 4 8 4 6 7 C6 5.02 6 3.04 6 1 C4.02 1.33 2.04 1.66 0 2 C0 1.34 0 0.68 0 0 Z " fill="#ECD01B" transform="translate(114,92)"/>
<path d="M0 0 C0.66 0.66 1.32 1.32 2 2 C1.51632431 5.86940552 -0.30822957 7.30822957 -3 10 C-2.67 7.36 -2.34 4.72 -2 2 C-1.34 2 -0.68 2 0 2 C0 1.34 0 0.68 0 0 Z " fill="#017536" transform="translate(6,91)"/>
<path d="M0 0 C0.99 0 1.98 0 3 0 C3 0.66 3 1.32 3 2 C2.34 2 1.68 2 1 2 C0.34 3.98 -0.32 5.96 -1 8 C-1.66 8 -2.32 8 -3 8 C-2.45276317 4.62537285 -1.9451 2.91765 0 0 Z " fill="#1F613D" transform="translate(20,47)"/>
<path d="M0 0 C1.32 0.33 2.64 0.66 4 1 C4.625 3.3125 4.625 3.3125 5 6 C4.01 7.485 4.01 7.485 3 9 C2.01 6.03 1.02 3.06 0 0 Z " fill="#217049" transform="translate(35,96)"/>
<path d="M0 0 C2.12508244 3.18762365 2.5020163 5.26512223 3 9 C2.01 9.33 1.02 9.66 0 10 C-0.95024979 6.30458414 -0.95024979 3.69541586 0 0 Z " fill="#18653C" transform="translate(217,71)"/>
<path d="M0 0 C3.0916909 2.52956528 3.90931332 5.22454612 5 9 C4.01 9 3.02 9 2 9 C2.33 8.34 2.66 7.68 3 7 C2.34 7 1.68 7 1 7 C0.67 4.69 0.34 2.38 0 0 Z " fill="#1F643F" transform="translate(210,57)"/>
<path d="M0 0 C1.98 0.495 1.98 0.495 4 1 C4.33 2.32 4.66 3.64 5 5 C4.01 5 3.02 5 2 5 C1.01 5.33 0.02 5.66 -1 6 C-0.67 4.02 -0.34 2.04 0 0 Z " fill="#076834" transform="translate(177,22)"/>
<path d="M0 0 C2.475 0.99 2.475 0.99 5 2 C4.01 3.485 4.01 3.485 3 5 C2.01 4.67 1.02 4.34 0 4 C-0.33 3.01 -0.66 2.02 -1 1 C-0.67 0.67 -0.34 0.34 0 0 Z M5 1 C7 2 7 2 7 2 Z " fill="#037335" transform="translate(40,27)"/>
<path d="M0 0 C0.33 0.66 0.66 1.32 1 2 C1.99 2.33 2.98 2.66 4 3 C4.6875 5.0625 4.6875 5.0625 5 7 C4.01 7.33 3.02 7.66 2 8 C0.74335022 5.09399739 0 3.20395416 0 0 Z " fill="#2A6949" transform="translate(5,146)"/>
<path d="M0 0 C-0.66 0.66 -1.32 1.32 -2 2 C-4.1640625 1.9765625 -4.1640625 1.9765625 -6.625 1.625 C-7.44226562 1.51414062 -8.25953125 1.40328125 -9.1015625 1.2890625 C-9.72804687 1.19367188 -10.35453125 1.09828125 -11 1 C-11 0.67 -11 0.34 -11 0 C-6.98195309 -0.84098656 -3.98196457 -1.05404945 0 0 Z " fill="#157140" transform="translate(58,124)"/>
<path d="M0 0 C0.66 0 1.32 0 2 0 C1.25 5.75 1.25 5.75 -1 8 C-2.2077558 4.37673261 -1.54311128 3.35853631 0 0 Z " fill="#166C3C" transform="translate(87,114)"/>
<path d="M0 0 C0.33 0 0.66 0 1 0 C1 2.64 1 5.28 1 8 C0.34 8 -0.32 8 -1 8 C-1.33 8.66 -1.66 9.32 -2 10 C-1.125 2.25 -1.125 2.25 0 0 Z " fill="#C2C725" transform="translate(112,96)"/>
<path d="M0 0 C3.375 -0.125 3.375 -0.125 7 0 C7.66 0.66 8.32 1.32 9 2 C8.01 2.66 7.02 3.32 6 4 C6 3.34 6 2.68 6 2 C4.68 2.33 3.36 2.66 2 3 C2 2.34 2 1.68 2 1 C1.34 0.67 0.68 0.34 0 0 Z " fill="#156A3D" transform="translate(84,3)"/>
<path d="M0 0 C0.33 0 0.66 0 1 0 C1.33 2.64 1.66 5.28 2 8 C1.01 8.33 0.02 8.66 -1 9 C-1.125 2.25 -1.125 2.25 0 0 Z " fill="#096C38" transform="translate(5,133)"/>
<path d="M0 0 C2 3 2 3 1.6875 5.0625 C1 7 1 7 0 9 C-0.66 9 -1.32 9 -2 9 C-1.34 6.03 -0.68 3.06 0 0 Z " fill="#1F6F48" transform="translate(99,113)"/>
<path d="M0 0 C1.5 1.375 1.5 1.375 3 3 C3 3.66 3 4.32 3 5 C1.35 5.66 -0.3 6.32 -2 7 C-1.125 2.25 -1.125 2.25 0 0 Z " fill="#267049" transform="translate(10,64)"/>
</svg>
