<?xml version="1.0" encoding="UTF-8"?>
<svg version="1.1" xmlns="http://www.w3.org/2000/svg" width="408" height="372">
<path d="M0 0 C0.85507141 0.44098526 1.71014282 0.88197052 2.59112549 1.33631897 C5.3210444 2.74719473 8.04330874 4.17217621 10.765625 5.59765625 C12.54769622 6.52111084 14.33024483 7.44364479 16.11328125 8.36523438 C23.78431599 12.3370644 31.43343289 16.3498347 39.07072449 20.3861084 C46.83245144 24.48645364 54.62441633 28.52122326 62.44921875 32.5 C63.43018524 32.99884201 64.41115173 33.49768402 65.42184448 34.01164246 C69.43675223 36.05191518 73.45237311 38.09076088 77.4699707 40.12573242 C88.05371323 45.48931857 98.6128489 50.89579434 109.05078125 56.5390625 C109.8551915 56.96686508 110.65960175 57.39466766 111.48838806 57.83543396 C119.1360021 62.01914932 125.29039456 66.03025985 128.015625 74.66015625 C128.81423705 79.3351557 129.14179064 83.82426584 129.14501953 88.56323242 C129.14764801 89.54070183 129.14764801 89.54070183 129.15032959 90.53791809 C129.15470137 92.67634817 129.15182216 94.81469417 129.1484375 96.953125 C129.14911293 98.4646252 129.15008494 99.97612529 129.15133667 101.48762512 C129.15280824 104.65736932 129.15068039 107.82708528 129.14599609 110.99682617 C129.14036182 114.99846908 129.14364443 119.00004466 129.14942265 123.00168514 C129.20486733 167.78942064 129.20486733 167.78942064 126.328125 183.22265625 C126.06866089 184.65170288 126.06866089 184.65170288 125.80395508 186.10961914 C119.754715 217.69658985 105.77955408 244.83735363 79.390625 264.16015625 C55.59974201 280.19076653 27.29060355 286.91063003 -0.984375 289.66015625 C-0.6835525 286.42352896 -0.37158299 285.01843491 2.0546875 282.7734375 C2.90804687 282.17917969 3.76140625 281.58492188 4.640625 280.97265625 C25.93412941 264.71436799 29.44292161 231.92662892 34.078125 207.41015625 C41.2251188 169.68849819 41.2251188 169.68849819 47.765625 157.22265625 C48.10215088 156.5692627 48.43867676 155.91586914 48.78540039 155.24267578 C55.10148629 143.48729458 64.09339946 135.31548697 76.828125 131.28515625 C83.23920913 129.60573095 89.40799608 128.95426244 96.015625 129.66015625 C97.015625 130.66015625 97.015625 130.66015625 97.26171875 133.85546875 C97.16971599 140.23338344 95.54276336 146.35782626 94.078125 152.53515625 C93.92290375 153.19254791 93.7676825 153.84993958 93.60775757 154.5272522 C88.02141373 177.99272574 79.14138752 199.84090429 69.015625 221.66015625 C72.80813996 216.77781069 76.27361436 211.88393539 79.265625 206.47265625 C79.63985596 205.79831543 80.01408691 205.12397461 80.3996582 204.42919922 C86.9825882 192.38337522 93.13043478 180.06392288 97.515625 167.03515625 C97.74660889 166.35018066 97.97759277 165.66520508 98.21557617 164.95947266 C101.58814595 154.34681279 102.38009777 143.84904458 102.4921875 132.76171875 C102.50033855 132.07196331 102.50848961 131.38220787 102.51688766 130.67155075 C102.55821249 127.03479038 102.5870065 123.39817292 102.60595703 119.76123047 C102.62826276 116.01796093 102.6973611 112.27701208 102.77630043 108.53457069 C102.82857494 105.63829162 102.84533238 102.74257646 102.85251999 99.84586716 C102.86223483 98.46545722 102.88541768 97.0850711 102.92259598 95.70512772 C103.39778901 88.188163 103.39778901 88.188163 100.29902649 81.74275208 C98.23768881 80.42944303 96.2982946 79.51968197 94.015625 78.66015625 C92.86964844 78.06074219 91.72367188 77.46132812 90.54296875 76.84375 C89.35832031 76.26753906 88.17367187 75.69132812 86.953125 75.09765625 C80.32071174 71.83482841 73.75109394 68.46419026 67.203125 65.03515625 C65.22267688 63.9986585 63.24220758 62.9622012 61.26171875 61.92578125 C60.24319824 61.39275391 59.22467773 60.85972656 58.17529297 60.31054688 C52.71164514 57.45671754 47.23858732 54.62107034 41.765625 51.78515625 C40.64454346 51.20403076 39.52346191 50.62290527 38.3684082 50.02416992 C33.13927206 47.3139401 27.90949677 44.60494976 22.67868042 41.89796448 C20.9085395 40.981791 19.13859535 40.06523741 17.36865234 39.14868164 C15.0750585 37.96099094 12.78112076 36.77396409 10.48681641 35.58764648 C5.54649528 33.02901783 0.61532836 30.45793205 -4.28125 27.81640625 C-5.06612793 27.39399658 -5.85100586 26.97158691 -6.65966797 26.53637695 C-8.06816645 25.775225 -9.47374504 25.00862933 -10.87548828 24.23510742 C-15.68448442 21.58885069 -15.68448442 21.58885069 -20.984375 20.66015625 C-23.55909113 21.67461813 -25.81845602 22.72638478 -28.234375 24.03515625 C-28.92241211 24.39295166 -29.61044922 24.75074707 -30.31933594 25.11938477 C-32.54963365 26.28407903 -34.76776738 27.46963265 -36.984375 28.66015625 C-39.31660695 29.90657654 -41.64932368 31.15205323 -43.98339844 32.39501953 C-45.45852916 33.18314252 -46.93066857 33.97689598 -48.39941406 34.77685547 C-51.57375381 36.48722684 -54.46356045 37.89112605 -57.984375 38.66015625 C-58.6953125 37.07421875 -58.6953125 37.07421875 -58.984375 34.66015625 C-57.96201615 32.28660967 -56.92414416 30.23687286 -55.609375 28.03515625 C-55.24505371 27.41632568 -54.88073242 26.79749512 -54.50537109 26.15991211 C-48.69609071 16.59699998 -41.50021553 9.50343764 -31.984375 3.66015625 C-31.36014648 3.26844238 -30.73591797 2.87672852 -30.09277344 2.47314453 C-28.00865333 1.17639172 -25.90690974 -0.08575963 -23.796875 -1.33984375 C-23.13163818 -1.75049072 -22.46640137 -2.1611377 -21.78100586 -2.58422852 C-21.13268799 -2.95733154 -20.48437012 -3.33043457 -19.81640625 -3.71484375 C-19.24639893 -4.05257812 -18.6763916 -4.3903125 -18.08911133 -4.73828125 C-11.55404908 -6.60609164 -5.60319518 -2.95737495 0 0 Z " fill="#B4FA78" transform="translate(227.984375,42.33984375)"/>
<path d="M0 0 C-1.38352275 3.29645472 -2.80062022 4.82909925 -5.75 6.8125 C-23.10251373 19.48358017 -28.41817888 42.63874974 -32.4375 62.625 C-32.73252378 64.05503099 -33.02843965 65.48487819 -33.32519531 66.91455078 C-34.07951856 70.55884348 -34.82367826 74.20511528 -35.56390381 77.85229492 C-36.53002839 82.61030635 -37.50370367 87.36677144 -38.48071289 92.12255859 C-38.97764349 94.54649489 -39.4706027 96.9712503 -39.95874023 99.39697266 C-43.8574257 118.52328426 -49.10894647 139.18431867 -66 151 C-75.19128898 156.13977929 -85.39551143 159.20557975 -96 159 C-96.99 158.34 -97.98 157.68 -99 157 C-96.81042152 127.03790743 -85.51803213 98.02420636 -72.85107422 71.04589844 C-71.87197222 69.06154356 -71.87197222 69.06154356 -72 67 C-89.88902056 95.28264145 -104.46469865 122.83913419 -104.1953125 157.05078125 C-104.19157001 158.44467462 -104.18872891 159.83857068 -104.18673706 161.23246765 C-104.17919763 164.85407112 -104.1596359 168.47550732 -104.1373291 172.0970459 C-104.11665845 175.81141906 -104.10769057 179.52581995 -104.09765625 183.24023438 C-104.076378 190.49356482 -104.04236353 197.74675874 -104 205 C-91.3409504 211.61807527 -78.67467406 218.22057431 -65.96472168 224.74041748 C-62.24896329 226.64669986 -58.53469252 228.55587741 -54.8203125 230.46484375 C-54.07587891 230.84739319 -53.33144531 231.22994263 -52.56445312 231.62408447 C-45.28775883 235.36431651 -38.01708589 239.11613704 -30.75 242.875 C-29.86455002 243.33294449 -29.86455002 243.33294449 -28.96121216 243.80014038 C-19.82115264 248.52850747 -10.6931 253.27968721 -1.57910156 258.05810547 C0.11517985 258.94484114 1.81250634 259.82578893 3.51318359 260.70019531 C5.22965067 261.59735521 6.92991261 262.5259726 8.61572266 263.47949219 C9.47085449 263.94774414 10.32598633 264.41599609 11.20703125 264.8984375 C11.96089111 265.32560059 12.71475098 265.75276367 13.49145508 266.19287109 C18.07837605 267.66872129 21.88467893 266.47498917 26.2097168 264.63305664 C27.27875244 264.06449951 28.34778809 263.49594238 29.44921875 262.91015625 C30.02912064 262.60556992 30.60902252 262.30098358 31.20649719 261.98716736 C33.03884342 261.02200189 34.86315235 260.0426852 36.6875 259.0625 C37.9220122 258.4085343 39.15703464 257.75553083 40.39257812 257.10351562 C42.6578477 255.90705764 44.91917146 254.70413084 47.1784668 253.49633789 C48.10957275 253.00254639 49.04067871 252.50875488 50 252 C50.72292236 251.60353271 51.44584473 251.20706543 52.19067383 250.79858398 C54 250 54 250 57 250 C55.15921711 261.78524217 46.29628876 273.01014301 37 280.0625 C32.36491804 283.22807972 27.58952115 286.15924134 22.75 289 C22.08871094 289.39840088 21.42742187 289.79680176 20.74609375 290.20727539 C20.10285156 290.57199951 19.45960938 290.93672363 18.796875 291.3125 C18.23323242 291.63863281 17.66958984 291.96476562 17.08886719 292.30078125 C12.89791981 293.70364162 9.16424523 293.43947495 5.06689453 291.89282227 C4.09864746 291.37260498 3.13040039 290.8523877 2.1328125 290.31640625 C0.45856201 289.43239136 0.45856201 289.43239136 -1.24951172 288.53051758 C-2.45805283 287.87459467 -3.66654758 287.21858631 -4.875 286.5625 C-6.14906206 285.88472993 -7.4239849 285.20857578 -8.69970703 284.53393555 C-11.40419489 283.10273396 -14.1052848 281.66537645 -16.8046875 280.22460938 C-23.09028404 276.88006752 -29.43053307 273.64161641 -35.76654053 270.39395142 C-39.26590942 268.59908768 -42.76203878 266.7979474 -46.2578125 264.99609375 C-46.92781281 264.65076096 -47.59781311 264.30542816 -48.28811646 263.94963074 C-55.02003221 260.47755051 -61.73660823 256.97633593 -68.44702148 253.46289062 C-73.71907133 250.70446282 -79.00088966 247.96588909 -84.29296875 245.24609375 C-91.54091272 241.52075334 -98.77595431 237.77150619 -106 234 C-106.90621094 233.52868652 -107.81242187 233.05737305 -108.74609375 232.57177734 C-124.6350881 224.2491221 -124.6350881 224.2491221 -129.3125 215.5625 C-131.5018057 207.40236059 -131.16343964 198.96203985 -131.16796875 190.58203125 C-131.1711952 189.16078155 -131.17456022 187.73953215 -131.17805481 186.31828308 C-131.18402905 183.33351885 -131.18589723 180.34878345 -131.18530273 177.36401367 C-131.18522257 174.367206 -131.19198793 171.37055476 -131.20581055 168.3737793 C-131.41977427 121.23149953 -130.20834889 71.08511718 -95.21484375 35.1328125 C-72.89835258 12.99819434 -42.42674577 3.99838646 -12 0 C-11.21689453 -0.10965088 -10.43378906 -0.21930176 -9.62695312 -0.33227539 C-3.20780488 -1.20292683 -3.20780488 -1.20292683 0 0 Z " fill="#B5FA77" transform="translate(190,43)"/>
<path d="M0 0 C0.12375 0.61875 0.2475 1.2375 0.375 1.875 C0.87197356 4.19120832 0.87197356 4.19120832 3 6 C3.24723816 8.85760498 3.24723816 8.85760498 3.24291992 12.55761719 C3.24481827 13.23102142 3.24671661 13.90442566 3.24867249 14.59823608 C3.25238595 16.83123307 3.24166378 19.06390674 3.23046875 21.296875 C3.22927658 22.84905967 3.22882387 24.40124507 3.2290802 25.95343018 C3.22751407 29.21183775 3.21921803 32.47013565 3.20581055 35.72851562 C3.18887702 39.89578605 3.18499461 44.06293526 3.18575573 48.23023605 C3.18548302 51.43879341 3.17998469 54.64732451 3.17275429 57.85587311 C3.16958104 59.39159191 3.16760337 60.92731368 3.16686058 62.46303558 C3.16467949 64.61700945 3.15589584 66.770858 3.14526367 68.92480469 C3.14145187 70.14899109 3.13764008 71.37317749 3.13371277 72.63446045 C3.00629571 75.84153742 2.60433832 78.85127207 2 82 C1.67 82 1.34 82 1 82 C-0.19960121 75.429174 -0.12713266 68.94955626 -0.09765625 62.28515625 C-0.09553383 60.46883949 -0.09553383 60.46883949 -0.09336853 58.61582947 C-0.08779026 54.76469406 -0.0752417 50.91361771 -0.0625 47.0625 C-0.05748219 44.4446623 -0.05291978 41.82682369 -0.04882812 39.20898438 C-0.03782794 32.80596958 -0.02111144 26.40298901 0 20 C-0.33 22.31 -0.66 24.62 -1 27 C-1.33 27 -1.66 27 -2 27 C-2.05811773 23.25006521 -2.09363593 19.50024648 -2.125 15.75 C-2.14175781 14.68652344 -2.15851563 13.62304688 -2.17578125 12.52734375 C-2.18222656 11.50253906 -2.18867188 10.47773438 -2.1953125 9.421875 C-2.20578613 8.47924805 -2.21625977 7.53662109 -2.22705078 6.56542969 C-1.99119213 3.90048059 -1.35661659 2.28136908 0 0 Z " fill="#ABEA86" transform="translate(354,118)"/>
<path d="M0 0 C5.50641779 1.59232437 10.28380898 4.12650887 15.3125 6.8125 C27.13690522 13.05798977 39.03192644 19.16106202 50.9375 25.25 C52.82008003 26.21327472 54.70264861 27.17657182 56.58520508 28.13989258 C61.0563441 30.42749407 65.52801424 32.71405426 70 35 C70 35.33 70 35.66 70 36 C65.37390802 36.3227506 62.71973879 35.84450614 59 33 C59 32.34 59 31.68 59 31 C58.34 30.9175 57.68 30.835 57 30.75 C53.78239498 29.94559875 51.25051399 28.70273727 48.3203125 27.1875 C45.65299971 25.82241063 42.96248304 24.52305871 40.25 23.25 C39.34765625 22.82203125 38.4453125 22.3940625 37.515625 21.953125 C34.82493533 20.76379732 34.82493533 20.76379732 31 21 C30.505 18.525 30.505 18.525 30 16 C28.741875 16.061875 27.48375 16.12375 26.1875 16.1875 C22.22321429 16.1875 22.22321429 16.1875 20.4375 14.6875 C19.963125 14.130625 19.48875 13.57375 19 13 C16.71272299 11.85118666 14.38339726 10.94436495 12 10 C12 9.34 12 8.68 12 8 C10.865625 7.731875 9.73125 7.46375 8.5625 7.1875 C7.386875 6.795625 6.21125 6.40375 5 6 C4.67 5.01 4.34 4.02 4 3 C1.98491642 2.26676204 1.98491642 2.26676204 0 2 C0 1.34 0 0.68 0 0 Z " fill="#BCFA8D" transform="translate(252,56)"/>
<path d="M0 0 C0.66 0 1.32 0 2 0 C0 4 0 4 -1.125 5.875 C-2.26915841 8.65367042 -2.13516968 11.02626695 -2 14 C-2.66 14 -3.32 14 -4 14 C-4 14.66 -4 15.32 -4 16 C-4.66 16 -5.32 16 -6 16 C-6 16.99 -6 17.98 -6 19 C-6.66 19 -7.32 19 -8 19 C-8.185625 20.0725 -8.37125 21.145 -8.5625 22.25 C-10.06554435 28.44031598 -13.66400753 33.64814042 -17 39 C-18 37 -18 37 -17.28735352 34.84521484 C-16.90506592 33.97590332 -16.52277832 33.1065918 -16.12890625 32.2109375 C-15.71962891 31.26992187 -15.31035156 30.32890625 -14.88867188 29.359375 C-14.2322168 27.88210937 -14.2322168 27.88210937 -13.5625 26.375 C-13.12873047 25.38242188 -12.69496094 24.38984375 -12.24804688 23.3671875 C-11.17229113 20.90831723 -10.08935634 18.45286789 -9 16 C-9.90492187 17.42892578 -9.90492187 17.42892578 -10.828125 18.88671875 C-11.63526573 20.153742 -12.44256588 21.4206637 -13.25 22.6875 C-13.64574219 23.31333984 -14.04148437 23.93917969 -14.44921875 24.58398438 C-16.78056537 28.23387949 -19.22119856 31.66671295 -22 35 C-21.34 31.37 -20.68 27.74 -20 24 C-19.01 24 -18.02 24 -17 24 C-17 23.34 -17 22.68 -17 22 C-16.34 22 -15.68 22 -15 22 C-14.7525 20.741875 -14.505 19.48375 -14.25 18.1875 C-13.52426106 15.25862501 -13.18476827 14.18476827 -11 12 C-9 11 -9 11 -7 11 C-6.62875 10.195625 -6.62875 10.195625 -6.25 9.375 C-4.52713402 6.10155465 -2.63127385 2.63127385 0 0 Z " fill="#9DEB82" transform="translate(128,93)"/>
<path d="M0 0 C0.99 0.495 0.99 0.495 2 1 C1.99777939 1.92184082 1.99555878 2.84368164 1.99327087 3.79345703 C1.97319078 12.50292125 1.95798658 21.21237764 1.94818783 29.92185974 C1.94298077 34.3989257 1.93592285 38.87597244 1.92456055 43.35302734 C1.91365406 47.67779732 1.90770677 52.00254887 1.90512276 56.32733154 C1.90328246 57.97304575 1.89968891 59.61875901 1.89426994 61.26446533 C1.88695636 63.57867573 1.88601338 65.89281106 1.88647461 68.20703125 C1.884254 69.5216333 1.88203339 70.83623535 1.87974548 72.19067383 C1.96980063 75.04336871 2.2282697 77.51491608 2.69459534 80.29956055 C2.79537888 81.52070557 2.89616241 82.74185059 3 84 C2.01 84.99 1.02 85.98 0 87 C0 58.29 0 29.58 0 0 Z " fill="#C3FE7E" transform="translate(61,164)"/>
<path d="M0 0 C0.33 0 0.66 0 1 0 C1.33 19.14 1.66 38.28 2 58 C13.385 63.94 13.385 63.94 25 70 C25.66 70.66 26.32 71.32 27 72 C21.375 72.25 21.375 72.25 18 70 C16.96875 69.67 15.9375 69.34 14.875 69 C12 68 12 68 11 66 C8.67328135 64.98470459 6.3396553 63.98511802 4 63 C3.34 62.34 2.68 61.68 2 61 C1.34 61 0.68 61 0 61 C0 40.87 0 20.74 0 0 Z " fill="#AAEF8D" transform="translate(84,190)"/>
<path d="M0 0 C-1.36983503 3.16115776 -1.9890638 3.9927092 -5 6 C-9.54054054 5.45945946 -9.54054054 5.45945946 -11 4 C-14.66344611 3.86431681 -17.50615721 3.83538574 -21 5 C-24.4643645 5.63602218 -27.95208648 6.11871263 -31.4375 6.625 C-32.39205078 6.77195312 -33.34660156 6.91890625 -34.33007812 7.0703125 C-35.25111328 7.204375 -36.17214844 7.3384375 -37.12109375 7.4765625 C-37.9608374 7.60111816 -38.80058105 7.72567383 -39.66577148 7.85400391 C-42.02945397 8.00184222 -43.75339816 7.70604713 -46 7 C-36.40188567 3.97747824 -26.75670989 2.18207434 -16.8125 0.6875 C-15.61842529 0.50413086 -14.42435059 0.32076172 -13.1940918 0.13183594 C-12.06398682 -0.03155273 -10.93388184 -0.19494141 -9.76953125 -0.36328125 C-8.24743042 -0.58431519 -8.24743042 -0.58431519 -6.69458008 -0.80981445 C-4.14970082 -0.989434 -2.40362357 -0.79142393 0 0 Z " fill="#C9FD82" transform="translate(190,43)"/>
<path d="M0 0 C5.58927022 0.52095884 9.61360915 2.65710066 14.4375 5.3125 C16.1089782 6.21297651 17.78087343 7.11267924 19.453125 8.01171875 C20.34064453 8.4917334 21.22816406 8.97174805 22.14257812 9.46630859 C27.29899424 12.23396119 32.49545219 14.92497358 37.6875 17.625 C39.67065197 18.65870253 41.6537317 19.69254365 43.63671875 20.7265625 C45.09111971 21.48442513 46.54553606 22.24225823 48 23 C48 23.33 48 23.66 48 24 C46.35 24 44.7 24 43 24 C43 23.34 43 22.68 43 22 C42.27425781 21.88269531 41.54851562 21.76539063 40.80078125 21.64453125 C37.94927262 20.98832634 35.77492529 20.03764276 33.1875 18.6875 C31.88425781 18.01654297 31.88425781 18.01654297 30.5546875 17.33203125 C29.71164063 16.89246094 28.86859375 16.45289063 28 16 C19.23901501 11.49157832 19.23901501 11.49157832 10 8.125 C6.23207753 6.71202908 2.96700316 4.73877215 0 2 C0 1.34 0 0.68 0 0 Z " fill="#B8F895" transform="translate(144,280)"/>
<path d="M0 0 C-0.57741933 8.3670869 -2.19442944 16.43215035 -3.9375 24.625 C-4.20240234 25.89601562 -4.46730469 27.16703125 -4.74023438 28.4765625 C-6.04327676 34.68460565 -7.39969151 40.86161865 -9 47 C-9.33 47 -9.66 47 -10 47 C-9.03644647 36.44191344 -9.03644647 36.44191344 -8 32 C-8.66 31.67 -9.32 31.34 -10 31 C-9.67 30.01 -9.34 29.02 -9 28 C-9.66 27.67 -10.32 27.34 -11 27 C-10.505 25.515 -10.505 25.515 -10 24 C-9.34 24 -8.68 24 -8 24 C-7.67 22.68 -7.34 21.36 -7 20 C-6.34 20 -5.68 20 -5 20 C-4.9498877 19.42967041 -4.89977539 18.85934082 -4.84814453 18.27172852 C-4.61680288 15.70100343 -4.37109952 13.13185243 -4.125 10.5625 C-4.04636719 9.66466797 -3.96773437 8.76683594 -3.88671875 7.84179688 C-3.76103516 6.56079102 -3.76103516 6.56079102 -3.6328125 5.25390625 C-3.55949707 4.46314697 -3.48618164 3.6723877 -3.41064453 2.85766602 C-3.27513184 2.24463623 -3.13961914 1.63160645 -3 1 C-1 0 -1 0 0 0 Z " fill="#9DE66E" transform="translate(155,113)"/>
<path d="M0 0 C1.18611691 3.55835074 0.72973609 5.01398282 -0.14453125 8.62109375 C-0.40943359 9.72130859 -0.67433594 10.82152344 -0.94726562 11.95507812 C-1.23279297 13.10427734 -1.51832031 14.25347656 -1.8125 15.4375 C-2.08642578 16.58283203 -2.36035156 17.72816406 -2.64257812 18.90820312 C-4.9121341 28.20957283 -4.9121341 28.20957283 -7 32 C-8.01347709 25.53908356 -8.01347709 25.53908356 -7.9375 22.5 C-8.02169832 19.13206703 -8.99621526 16.19956385 -10 13 C-9.34 12.34 -8.68 11.68 -8 11 C-4.93827936 7.46724541 -2.28946593 4.09693904 0 0 Z " fill="#A5F272" transform="translate(162,80)"/>
<path d="M0 0 C3 0 3 0 5 1 C5 1.66 5 2.32 5 3 C5.33 3.99 5.66 4.98 6 6 C5.67 7.32 5.34 8.64 5 10 C-2.92 10.495 -2.92 10.495 -11 11 C-9 5 -9 5 -6.8359375 3.7578125 C-5.61777344 3.44457031 -5.61777344 3.44457031 -4.375 3.125 C-3.55773437 2.90070313 -2.74046875 2.67640625 -1.8984375 2.4453125 C-1.27195313 2.29835938 -0.64546875 2.15140625 0 2 C0 1.34 0 0.68 0 0 Z " fill="#BDFD69" transform="translate(245,317)"/>
<path d="M0 0 C0.99 0.33 1.98 0.66 3 1 C5.63804589 0.60602665 5.63804589 0.60602665 8 0 C8 0.99 8 1.98 8 3 C8.66 3.33 9.32 3.66 10 4 C8.68 4.33 7.36 4.66 6 5 C6 5.66 6 6.32 6 7 C5.01 7.495 5.01 7.495 4 8 C3.67 8.99 3.34 9.98 3 11 C1.1875 12.3125 1.1875 12.3125 -1 13 C-3.1875 12.3125 -3.1875 12.3125 -5 11 C-5.33 10.01 -5.66 9.02 -6 8 C-4.78515625 5.95703125 -4.78515625 5.95703125 -3.0625 3.8125 C-2.49660156 3.09707031 -1.93070313 2.38164063 -1.34765625 1.64453125 C-0.90292969 1.10183594 -0.45820313 0.55914062 0 0 Z " fill="#BFFD68" transform="translate(180,64)"/>
<path d="M0 0 C0.66 0.99 1.32 1.98 2 3 C1.34 3.66 0.68 4.32 0 5 C7.59 4.67 15.18 4.34 23 4 C23 4.33 23 4.66 23 5 C18.58442544 5.83919128 14.16737466 6.6703408 9.75 7.5 C8.49574219 7.73847656 7.24148437 7.97695313 5.94921875 8.22265625 C4.74394531 8.44824219 3.53867188 8.67382812 2.296875 8.90625 C0.63156738 9.22045898 0.63156738 9.22045898 -1.06738281 9.54101562 C-4 10 -4 10 -8 10 C-7.9375 7.8125 -7.9375 7.8125 -7 5 C-4.8282781 3.06842043 -2.47398953 1.51798313 0 0 Z " fill="#A2E876" transform="translate(235,322)"/>
<path d="M0 0 C1.19908285 3.46848797 0.78945844 5.59994812 -0.3125 9.0625 C-0.57675781 9.91972656 -0.84101563 10.77695312 -1.11328125 11.66015625 C-2 14 -2 14 -4 17 C-4 17.99 -4 18.98 -4 20 C-4.9662501 22.01652194 -5.96708324 24.01679982 -7 26 C-7.33 26.99 -7.66 27.98 -8 29 C-11.4375 30.75 -11.4375 30.75 -15 32 C-15.66 31.67 -16.32 31.34 -17 31 C-16.175 30.154375 -15.35 29.30875 -14.5 28.4375 C-7.64597533 20.44385128 -2.82734439 10.07241441 0 0 Z " fill="#ACF87D" transform="translate(253,290)"/>
<path d="M0 0 C3.63 0 7.26 0 11 0 C11 0.66 11 1.32 11 2 C11.99 2.33 12.98 2.66 14 3 C14 3.99 14 4.98 14 6 C14.99 6 15.98 6 17 6 C17 6.66 17 7.32 17 8 C17.825 8.268125 18.65 8.53625 19.5 8.8125 C21.2325 9.4003125 21.2325 9.4003125 23 10 C23.69609375 10.21785156 24.3921875 10.43570312 25.109375 10.66015625 C30.66851501 12.51658439 30.66851501 12.51658439 32.5 15.1875 C32.7475 16.0846875 32.7475 16.0846875 33 17 C28.56949392 15.63991052 24.61086264 13.89140424 20.5078125 11.7421875 C19.91700897 11.43427277 19.32620544 11.12635803 18.71749878 10.80911255 C16.85113872 9.83520491 14.98804976 8.85522261 13.125 7.875 C11.85177467 7.2092295 10.57833907 6.54386096 9.3046875 5.87890625 C6.20068121 4.25724259 3.09957584 2.63011907 0 1 C0 0.67 0 0.34 0 0 Z " fill="#B3F574" transform="translate(88,278)"/>
<path d="M0 0 C0.33 0 0.66 0 1 0 C1 3.3 1 6.6 1 10 C0.67 10 0.34 10 0 10 C-0.06058594 10.96421875 -0.12117188 11.9284375 -0.18359375 12.921875 C-0.26738281 14.18515625 -0.35117187 15.4484375 -0.4375 16.75 C-0.51871094 18.00296875 -0.59992188 19.2559375 -0.68359375 20.546875 C-0.92852658 23.21996906 -1.28744568 25.44318745 -2 28 C-2.3662999 29.91438489 -2.71986402 31.83123849 -3.0625 33.75 C-3.23910156 34.73484375 -3.41570312 35.7196875 -3.59765625 36.734375 C-3.79681641 37.85585938 -3.79681641 37.85585938 -4 39 C-5.485 39.495 -5.485 39.495 -7 40 C-6.4711827 31.08681352 -4.81363918 22.52708541 -2.9375 13.8125 C-2.65241706 12.46561695 -2.36790819 11.11861225 -2.08398438 9.77148438 C-1.39493263 6.51308716 -0.70016192 3.25602458 0 0 Z " fill="#A2EE85" transform="translate(268,221)"/>
<path d="M0 0 C4.39285847 1.35368055 8.34281101 3.07359432 12.421875 5.1875 C13.00793518 5.49067139 13.59399536 5.79384277 14.19781494 6.10620117 C15.42579007 6.74282281 16.65264652 7.38160654 17.87841797 8.02246094 C19.75563897 9.00294527 21.63726841 9.97454879 23.51953125 10.9453125 C24.71641743 11.56718589 25.91304154 12.18956399 27.109375 12.8125 C28.73311035 13.65748047 28.73311035 13.65748047 30.38964844 14.51953125 C33 16 33 16 35 18 C30.37390802 18.3227506 27.71973879 17.84450614 24 15 C24 14.34 24 13.68 24 13 C23.34 12.9175 22.68 12.835 22 12.75 C17.98370585 11.74592646 14.63550198 9.94712829 11 8 C10.19304687 7.58105469 9.38609375 7.16210938 8.5546875 6.73046875 C7.75289063 6.30378906 6.95109375 5.87710938 6.125 5.4375 C5.01511719 4.84775391 5.01511719 4.84775391 3.8828125 4.24609375 C2 3 2 3 0 0 Z " fill="#B7F89C" transform="translate(287,74)"/>
<path d="M0 0 C0.33 0 0.66 0 1 0 C1 16.5 1 33 1 50 C-0.98 50.495 -0.98 50.495 -3 51 C-3.25 43.375 -3.25 43.375 -1 40 C-0.67539843 38.08551948 -0.67539843 38.08551948 -0.68115234 35.98754883 C-0.66128265 35.18694534 -0.64141296 34.38634186 -0.62094116 33.56147766 C-0.60938995 32.70201035 -0.59783875 31.84254303 -0.5859375 30.95703125 C-0.56657135 30.0734343 -0.5472052 29.18983734 -0.5272522 28.27946472 C-0.46747195 25.45724134 -0.42107734 22.63497714 -0.375 19.8125 C-0.33681878 17.89907075 -0.29776696 15.98565867 -0.2578125 14.07226562 C-0.16177168 9.38164979 -0.0777349 4.69095348 0 0 Z " fill="#B4FD8D" transform="translate(83,199)"/>
<path d="M0 0 C2 1 2 1 2.65234375 2.76171875 C3.04042765 5.26028139 2.88213805 7.30669551 2.5625 9.8125 C2.09402219 13.92537013 1.82394299 17.86266019 2 22 C2.33 22.33 2.66 22.66 3 23 C3.125 26.5 3.125 26.5 3 30 C2.67 30.33 2.34 30.66 2 31 C1.76712992 32.68183948 1.58735834 34.3712416 1.4375 36.0625 C1.35371094 36.98160156 1.26992188 37.90070313 1.18359375 38.84765625 C1.12300781 39.55792969 1.06242187 40.26820313 1 41 C0.67 41 0.34 41 0 41 C-0.16721596 35.32186163 -0.32781538 29.64359025 -0.48217773 23.96508789 C-0.5356778 22.03176791 -0.59101308 20.09849784 -0.64819336 18.1652832 C-0.72988175 15.39285041 -0.80505352 12.62030742 -0.87890625 9.84765625 C-0.90594131 8.97786636 -0.93297638 8.10807648 -0.96083069 7.21192932 C-1.01278164 5.14189685 -1.01188571 3.07065016 -1 1 C-0.67 0.67 -0.34 0.34 0 0 Z " fill="#BDFE7D" transform="translate(333,122)"/>
<path d="M0 0 C5.81316339 0.29065817 10.13978949 3.07307323 15 6 C15 6.33 15 6.66 15 7 C14.278125 6.979375 13.55625 6.95875 12.8125 6.9375 C10.08074862 6.99820559 7.65743909 7.39258535 5 8 C5 7.34 5 6.68 5 6 C3.02 6.99 3.02 6.99 1 8 C-1 6 -1 6 -1.1875 3.4375 C-1 1 -1 1 0 0 Z " fill="#BFFB76" transform="translate(113,264)"/>
<path d="M0 0 C0.5534764 2.07553648 1 3.84365964 1 6 C0.34 6 -0.32 6 -1 6 C-1 6.66 -1 7.32 -1 8 C-1.66 8 -2.32 8 -3 8 C-3 8.99 -3 9.98 -3 11 C-3.66 11 -4.32 11 -5 11 C-5.185625 12.0725 -5.37125 13.145 -5.5625 14.25 C-7.06554435 20.44031598 -10.66400753 25.64814042 -14 31 C-14.33 30.34 -14.66 29.68 -15 29 C-14.28735352 26.93701172 -14.28735352 26.93701172 -13.12890625 24.4296875 C-12.71962891 23.53378906 -12.31035156 22.63789062 -11.88867188 21.71484375 C-11.45103516 20.77769531 -11.01339844 19.84054688 -10.5625 18.875 C-10.12873047 17.93011719 -9.69496094 16.98523438 -9.24804688 16.01171875 C-8.1723338 13.67115623 -7.08940487 11.33421339 -6 9 C-5.34 9 -4.68 9 -4 9 C-3.71125 7.88625 -3.4225 6.7725 -3.125 5.625 C-2 2 -2 2 0 0 Z " fill="#A9F388" transform="translate(125,101)"/>
<path d="M0 0 C-4 2 -4 2 -5.9375 2.8125 C-8.23501043 3.99963299 -8.23501043 3.99963299 -10.375 6.5625 C-13.34764558 9.32281376 -15.02321445 9.72254985 -19 10 C-19.33 10.99 -19.66 11.98 -20 13 C-23.17242648 14.31035007 -25.55881664 15 -29 15 C-24.74049286 11.3526376 -20.14803814 8.6055462 -15.3125 5.8125 C-14.15524414 5.13670898 -14.15524414 5.13670898 -12.97460938 4.44726562 C-5.10943044 -0.1344587 -5.10943044 -0.1344587 0 0 Z " fill="#B3F58F" transform="translate(217,37)"/>
<path d="M0 0 C2.68926168 1.246317 5.37638852 2.49692566 8.0625 3.75 C8.81466797 4.09804688 9.56683594 4.44609375 10.34179688 4.8046875 C15.03510511 6.99896148 19.53677402 9.36829703 24 12 C21.10765685 12.82638376 19.11257569 13 16 13 C15.34 12.34 14.68 11.68 14 11 C13.1028125 10.566875 13.1028125 10.566875 12.1875 10.125 C10 9 10 9 7.5625 7 C5.08071863 5.06299991 2.95836218 4.01429561 0 3 C0 2.01 0 1.02 0 0 Z " fill="#BBFB8D" transform="translate(218,38)"/>
<path d="M0 0 C0.3449145 1.33038449 0.67516582 2.66457061 1 4 C1.309375 5.051875 1.309375 5.051875 1.625 6.125 C2.18929313 10.45124735 1.71593601 14.70438395 1 19 C0.67 19.33 0.34 19.66 0 20 C-0.36760731 22.32817964 -0.70241581 24.6618385 -1 27 C-1.33 27 -1.66 27 -2 27 C-2.05811773 23.25006521 -2.09363593 19.50024648 -2.125 15.75 C-2.14175781 14.68652344 -2.15851563 13.62304688 -2.17578125 12.52734375 C-2.18222656 11.50253906 -2.18867188 10.47773438 -2.1953125 9.421875 C-2.20578613 8.47924805 -2.21625977 7.53662109 -2.22705078 6.56542969 C-1.99119213 3.90048059 -1.35661659 2.28136908 0 0 Z " fill="#C3FE81" transform="translate(354,118)"/>
<path d="M0 0 C1.53515625 1.1640625 1.53515625 1.1640625 3 3 C2.9919169 8.22167943 1.75988334 12.860175 -1.125 17.1875 C-2.053125 18.0846875 -2.053125 18.0846875 -3 19 C-3.13626415 12.05052847 -2.77126469 6.46628427 0 0 Z " fill="#B9FC87" transform="translate(83,182)"/>
<path d="M0 0 C0.7425 0.185625 1.485 0.37125 2.25 0.5625 C4.94990963 0.99203108 6.44631077 0.85122974 9 0 C9 4 9 4 7 7 C4.375 7.1875 4.375 7.1875 2 7 C1.67 6.01 1.34 5.02 1 4 C0.34 4 -0.32 4 -1 4 C-0.67 2.68 -0.34 1.36 0 0 Z " fill="#C2FC6B" transform="translate(197,328)"/>
<path d="M0 0 C0.33 0 0.66 0 1 0 C1.48325843 7.98942528 0.07423218 14.93539152 -2 22.625 C-2.28617187 23.72457031 -2.57234375 24.82414062 -2.8671875 25.95703125 C-3.56736761 28.641055 -4.27844102 31.32166006 -5 34 C-5.33 34 -5.66 34 -6 34 C-5.42284882 29.09421497 -4.76807479 24.20152217 -4.0625 19.3125 C-3.90910156 18.23613281 -3.75570313 17.15976563 -3.59765625 16.05078125 C-3.02798692 13.14286135 -2.118356 10.73076484 -1 8 C-0.56111075 5.79745973 -0.56111075 5.79745973 -0.375 3.6875 C-0.189375 1.8621875 -0.189375 1.8621875 0 0 Z " fill="#9ADE69" transform="translate(323,176)"/>
<path d="M0 0 C0.33 0 0.66 0 1 0 C1.042721 1.66611905 1.04063832 3.33382885 1 5 C0.67 5.33 0.34 5.66 0 6 C-0.39148761 7.51165654 -0.73972457 9.03469632 -1.0625 10.5625 C-1.23910156 11.38878906 -1.41570312 12.21507813 -1.59765625 13.06640625 C-1.73042969 13.70449219 -1.86320312 14.34257813 -2 15 C-2.66 15 -3.32 15 -4 15 C-4.28875 15.94875 -4.5775 16.8975 -4.875 17.875 C-6 21 -6 21 -8 23 C-7.38696372 17.59491957 -5.55619307 13.07560955 -3.4375 8.125 C-3.10814453 7.34125 -2.77878906 6.5575 -2.43945312 5.75 C-1.63203214 3.83091244 -0.81680231 1.9151135 0 0 Z " fill="#ADF890" transform="translate(75,106)"/>
<path d="M0 0 C1.59908203 -0.00386719 1.59908203 -0.00386719 3.23046875 -0.0078125 C5.8125 0.125 5.8125 0.125 6.8125 1.125 C6.95365161 3.79558851 6.85497107 6.44932238 6.8125 9.125 C6.4825 9.125 6.1525 9.125 5.8125 9.125 C5.4825 6.815 5.1525 4.505 4.8125 2.125 C2.8325 2.125 0.8525 2.125 -1.1875 2.125 C-1.1875 2.455 -1.1875 2.785 -1.1875 3.125 C-5.4775 3.125 -9.7675 3.125 -14.1875 3.125 C-9.07830266 0.57040133 -5.69531476 -0.01387409 0 0 Z " fill="#AEEF85" transform="translate(318.1875,171.875)"/>
<path d="M0 0 C0.66 0 1.32 0 2 0 C0.72329164 4.50138413 -0.92775771 7.6243359 -3.875 11.25 C-4.55304688 12.10078125 -5.23109375 12.9515625 -5.9296875 13.828125 C-7.89633702 15.89125167 -9.38351617 16.94401998 -12 18 C-7.64784547 10.04606241 -7.64784547 10.04606241 -5 8 C-4.34 8 -3.68 8 -3 8 C-2.87625 7.05125 -2.7525 6.1025 -2.625 5.125 C-2 2 -2 2 0 0 Z " fill="#9CE273" transform="translate(138,173)"/>
<path d="M0 0 C1.65 0 3.3 0 5 0 C5 0.66 5 1.32 5 2 C5.825 2.268125 6.65 2.53625 7.5 2.8125 C9.2325 3.4003125 9.2325 3.4003125 11 4 C11.69609375 4.21785156 12.3921875 4.43570312 13.109375 4.66015625 C18.66851501 6.51658439 18.66851501 6.51658439 20.5 9.1875 C20.7475 10.0846875 20.7475 10.0846875 21 11 C15.99886406 9.51991304 11.67084403 7.3681664 7.125 4.875 C6.43664062 4.50246094 5.74828125 4.12992187 5.0390625 3.74609375 C3.35705202 2.83500474 1.67819564 1.91809685 0 1 C0 0.67 0 0.34 0 0 Z " fill="#ACF085" transform="translate(100,284)"/>
<path d="M0 0 C0.99 0 1.98 0 3 0 C3 0.99 3 1.98 3 3 C4.32 3.66 5.64 4.32 7 5 C7 5.66 7 6.32 7 7 C9.31 7.33 11.62 7.66 14 8 C14 8.99 14 9.98 14 11 C7.83643195 9.3341708 2.51740344 6.12194714 -3 3 C-2.01 2.67 -1.02 2.34 0 2 C0 1.34 0 0.68 0 0 Z " fill="#AEF087" transform="translate(273,91)"/>
<path d="M0 0 C0.99 0.66 1.98 1.32 3 2 C-6.48466981 8.02201258 -6.48466981 8.02201258 -13 7 C-14.32 6.01 -15.64 5.02 -17 4 C-13.7 4.33 -10.4 4.66 -7 5 C-7 4.34 -7 3.68 -7 3 C-3.6875 1.375 -3.6875 1.375 0 0 Z " fill="#A0E77A" transform="translate(211,329)"/>
<path d="M0 0 C1.71446027 5.0159547 -0.21745443 9.21812775 -2 14 C-3.625 17 -3.625 17 -5 19 C-5.33 19.66 -5.66 20.32 -6 21 C-6.66 21 -7.32 21 -8 21 C-8.33 21.99 -8.66 22.98 -9 24 C-9.33 23.34 -9.66 22.68 -10 22 C-8.79893618 19.35469401 -7.54499805 16.81339734 -6.1875 14.25 C-3.73156081 9.56957139 -1.51340049 5.09271275 0 0 Z " fill="#A6F493" transform="translate(253,290)"/>
<path d="M0 0 C0.66 0.33 1.32 0.66 2 1 C1.67 1.66 1.34 2.32 1 3 C4.465 2.505 4.465 2.505 8 2 C8.66 3.32 9.32 4.64 10 6 C6.04 6 2.08 6 -2 6 C-2 4.68 -2 3.36 -2 2 C-1.34 2 -0.68 2 0 2 C0 1.34 0 0.68 0 0 Z " fill="#BFFB62" transform="translate(95,193)"/>
<path d="M0 0 C0.99 0.33 1.98 0.66 3 1 C0.36 6.61 -2.28 12.22 -5 18 C-7 14 -7 14 -6.3125 10.9375 C-4.74349866 7.42592558 -3.41594261 5.70797131 0 4 C0 2.68 0 1.36 0 0 Z " fill="#98E874" transform="translate(169,62)"/>
<path d="M0 0 C-4.41232575 4.41232575 -10.95143993 4.51256413 -16.875 5.125 C-17.65875 5.21136719 -18.4425 5.29773437 -19.25 5.38671875 C-21.16603159 5.5970149 -23.0829366 5.79932744 -25 6 C-21.38079355 3.5871957 -17.79876463 2.82678754 -13.625 1.875 C-12.86960938 1.69324219 -12.11421875 1.51148438 -11.3359375 1.32421875 C-7.48737403 0.42936046 -3.98051023 -0.2378791 0 0 Z " fill="#B5F593" transform="translate(169,45)"/>
<path d="M0 0 C-1.0975223 2.99324263 -1.67682892 3.84610901 -4.625 5.25 C-5.800625 5.62125 -5.800625 5.62125 -7 6 C-6.34 4.68 -5.68 3.36 -5 2 C-9.95 2 -14.9 2 -20 2 C-20 1.67 -20 1.34 -20 1 C-17.41765641 0.63667026 -14.83460218 0.28405133 -12.25 -0.0625 C-11.52039063 -0.16626953 -10.79078125 -0.27003906 -10.0390625 -0.37695312 C-6.3892704 -0.85806208 -3.52327086 -1.04532842 0 0 Z " fill="#ABEB8E" transform="translate(190,43)"/>
<path d="M0 0 C-0.66 1.32 -1.32 2.64 -2 4 C-2.886875 3.896875 -3.77375 3.79375 -4.6875 3.6875 C-9.00684858 4.09498572 -10.25642975 5.7722703 -13 9 C-12.4409112 5.75728494 -11.5867822 4.06942576 -9 2 C-8.34 2 -7.68 2 -7 2 C-7 1.34 -7 0.68 -7 0 C-3.86650268 -1.04449911 -3.01031744 -0.93423645 0 0 Z " fill="#C7FC71" transform="translate(245,297)"/>
<path d="M0 0 C0 0.66 0 1.32 0 2 C-1.32 2 -2.64 2 -4 2 C-4.33 2.99 -4.66 3.98 -5 5 C-6.70703125 5.87890625 -6.70703125 5.87890625 -8.8125 6.5625 C-11.66869282 7.5367848 -14.33813202 8.55815485 -17 10 C-13.45474384 4.35981974 -6.77135692 0 0 0 Z " fill="#B5F395" transform="translate(304,175)"/>
<path d="M0 0 C0.33 0.66 0.66 1.32 1 2 C0.34 1.67 -0.32 1.34 -1 1 C-0.67 0.67 -0.34 0.34 0 0 Z M-2 2 C-1.67 2.99 -1.34 3.98 -1 5 C-0.34 5 0.32 5 1 5 C1.33 7.64 1.66 10.28 2 13 C0.68 13.33 -0.64 13.66 -2 14 C-3.125 10.25 -3.125 10.25 -2 8 C-2.66 7.67 -3.32 7.34 -4 7 C-3.34 5.35 -2.68 3.7 -2 2 Z " fill="#B3F861" transform="translate(316,198)"/>
<path d="M0 0 C5.47932789 1.54545146 10.11429181 4.15543212 15 7 C15 7.33 15 7.66 15 8 C10.68110663 8.35796233 8.34300158 7.3887032 4.6875 5.125 C3.80449219 4.59132813 2.92148437 4.05765625 2.01171875 3.5078125 C1.34785156 3.01023437 0.68398438 2.51265625 0 2 C0 1.34 0 0.68 0 0 Z " fill="#B6FA94" transform="translate(322,92)"/>
<path d="M0 0 C0.99 0.33 1.98 0.66 3 1 C-0.42080885 5.16446295 -4.89092312 7.46633604 -10 9 C-10.99 8.67 -11.98 8.34 -13 8 C-12.34 8 -11.68 8 -11 8 C-10.67 7.01 -10.34 6.02 -10 5 C-6.3962102 3.47839986 -3.94779314 3 0 3 C0 2.01 0 1.02 0 0 Z " fill="#9EE575" transform="translate(123,190)"/>
<path d="M0 0 C4.455 0.99 4.455 0.99 9 2 C9 2.66 9 3.32 9 4 C5.77208445 6.1519437 4.71599191 6.20086443 1 6 C0.67 4.02 0.34 2.04 0 0 Z " fill="#BEFC72" transform="translate(328,98)"/>
<path d="M0 0 C0 1.98 0 3.96 0 6 C-0.99 5.67 -1.98 5.34 -3 5 C-3 4.34 -3 3.68 -3 3 C-5.97 2.67 -8.94 2.34 -12 2 C-8.15820154 -2.0018734 -5.05897886 -0.92747946 0 0 Z " fill="#BFF96B" transform="translate(323,174)"/>
<path d="M0 0 C2.72226766 2.72226766 3.78896139 5.36688418 5 9 C3.5625 11.1875 3.5625 11.1875 2 13 C0 8.25 0 8.25 0 6 C-0.66 5.34 -1.32 4.68 -2 4 C-1.34 2.68 -0.68 1.36 0 0 Z " fill="#A9ED68" transform="translate(138,160)"/>
<path d="M0 0 C0 0.66 0 1.32 0 2 C-2.62035018 3.36389525 -5.24556999 4.71632173 -7.875 6.0625 C-8.99455078 6.64741211 -8.99455078 6.64741211 -10.13671875 7.24414062 C-10.85214844 7.60830078 -11.56757813 7.97246094 -12.3046875 8.34765625 C-13.2944458 8.85824585 -13.2944458 8.85824585 -14.30419922 9.37915039 C-14.86381348 9.58403076 -15.42342773 9.78891113 -16 10 C-16.66 9.67 -17.32 9.34 -18 9 C-6.78640777 0 -6.78640777 0 0 0 Z " fill="#99E283" transform="translate(209,60)"/>
<path d="M0 0 C0 0.66 0 1.32 0 2 C-1.32 2.33 -2.64 2.66 -4 3 C-4.33 4.32 -4.66 5.64 -5 7 C-6.32 7.33 -7.64 7.66 -9 8 C-9 7.34 -9 6.68 -9 6 C-10.32 6.33 -11.64 6.66 -13 7 C-10.84545751 4.64283596 -8.80280126 3.21033856 -5.9375 1.8125 C-5.24527344 1.46832031 -4.55304688 1.12414062 -3.83984375 0.76953125 C-2 0 -2 0 0 0 Z " fill="#AAEC85" transform="translate(232,300)"/>
<path d="M0 0 C4.571279 0.54855348 8.67435795 1.41744803 13 3 C13.33 4.65 13.66 6.3 14 8 C9.38 5.69 4.76 3.38 0 1 C0 0.67 0 0.34 0 0 Z " fill="#B0F589" transform="translate(216,65)"/>
<path d="M0 0 C0.66 0.99 1.32 1.98 2 3 C-1.625 6 -1.625 6 -5 6 C-5.33 7.32 -5.66 8.64 -6 10 C-6.66 10 -7.32 10 -8 10 C-7.9375 7.8125 -7.9375 7.8125 -7 5 C-4.8282781 3.06842043 -2.47398953 1.51798313 0 0 Z " fill="#ACF489" transform="translate(235,322)"/>
<path d="M0 0 C4.50802601 1.25805377 7.4912812 2.90407165 11 6 C8.69 6.66 6.38 7.32 4 8 C4 6.68 4 5.36 4 4 C2.68 3.67 1.36 3.34 0 3 C0 2.01 0 1.02 0 0 Z " fill="#B6FA8E" transform="translate(192,304)"/>
<path d="M0 0 C0.66 0.33 1.32 0.66 2 1 C0.40956621 6.08938811 -2.7446951 9.87456643 -6 14 C-6.33 13.34 -6.66 12.68 -7 12 C-5.12660513 7.66161189 -2.67282633 3.87098985 0 0 Z " fill="#97DE6B" transform="translate(294,266)"/>
<path d="M0 0 C0.99 0 1.98 0 3 0 C2.39816251 2.02045442 1.72693904 4.02111039 1 6 C0.01 6.495 0.01 6.495 -1 7 C-2.01187895 8.65948148 -3.0126546 10.32580562 -4 12 C-4.33 12 -4.66 12 -5 12 C-4.67 9.69 -4.34 7.38 -4 5 C-3.34 5 -2.68 5 -2 5 C-2 4.34 -2 3.68 -2 3 C-1.01 3 -0.02 3 1 3 C0.67 2.01 0.34 1.02 0 0 Z " fill="#A7F17D" transform="translate(295,260)"/>
<path d="M0 0 C0.66 0.33 1.32 0.66 2 1 C0.02 5.95 -1.96 10.9 -4 16 C-4.33 16 -4.66 16 -5 16 C-5 13.69 -5 11.38 -5 9 C-4.34 9 -3.68 9 -3 9 C-3.33 6.36 -3.66 3.72 -4 1 C-2.02 1.495 -2.02 1.495 0 2 C0 1.34 0 0.68 0 0 Z " fill="#A7F085" transform="translate(96,144)"/>
<path d="M0 0 C5.85272256 0.45020943 10.08220119 3.03839227 15 6 C15 6.33 15 6.66 15 7 C13.35 7 11.7 7 10 7 C10 6.34 10 5.68 10 5 C9.0925 4.9175 8.185 4.835 7.25 4.75 C3.59922161 3.90751268 2.36615417 2.82118382 0 0 Z " fill="#BCF796" transform="translate(113,264)"/>
<path d="M0 0 C0.66 0.33 1.32 0.66 2 1 C0.95285076 2.32477959 -0.11344669 3.63443746 -1.1875 4.9375 C-1.77917969 5.66839844 -2.37085938 6.39929688 -2.98046875 7.15234375 C-5.32505203 9.29738803 -6.88391498 9.66094412 -10 10 C-8.5741914 6.54804233 -6.90253666 4.8985744 -3.875 2.75 C-3.15054687 2.22921875 -2.42609375 1.7084375 -1.6796875 1.171875 C-1.12539063 0.78515625 -0.57109375 0.3984375 0 0 Z " fill="#B8F884" transform="translate(292,181)"/>
<path d="M0 0 C5.77378925 0.4811491 9.95859836 2.18467181 15 5 C15 5.33 15 5.66 15 6 C10.37390802 6.3227506 7.71973879 5.84450614 4 3 C4 2.34 4 1.68 4 1 C2.68 0.67 1.36 0.34 0 0 Z " fill="#B9F68F" transform="translate(307,86)"/>
<path d="M0 0 C0.33 0.66 0.66 1.32 1 2 C0.67 2.99 0.34 3.98 0 5 C3.465 4.505 3.465 4.505 7 4 C4.47043472 7.0916909 1.77545388 7.90931332 -2 9 C-2.6875 7.3125 -2.6875 7.3125 -3 5 C-1.5625 2.25 -1.5625 2.25 0 0 Z " fill="#8ADC80" transform="translate(172,72)"/>
<path d="M0 0 C0.66 0.33 1.32 0.66 2 1 C-6.47572816 12.73786408 -6.47572816 12.73786408 -11 15 C-9.58319756 10.67953102 -7.46236215 7.99538801 -4.375 4.6875 C-3.55773437 3.80449219 -2.74046875 2.92148437 -1.8984375 2.01171875 C-0.95871094 1.01591797 -0.95871094 1.01591797 0 0 Z " fill="#B2F896" transform="translate(186,53)"/>
<path d="M0 0 C1.45742463 -0.08096803 2.91612807 -0.13917774 4.375 -0.1875 C5.18710938 -0.22230469 5.99921875 -0.25710937 6.8359375 -0.29296875 C7.55007812 -0.19628906 8.26421875 -0.09960938 9 0 C11 3 11 3 11 6 C6.95743617 4.77782954 3.50711041 3.37245704 0 1 C0 0.67 0 0.34 0 0 Z " fill="#ABF283" transform="translate(245,80)"/>
<path d="M0 0 C0.33 0 0.66 0 1 0 C0.67 3.96 0.34 7.92 0 12 C0.66 12.33 1.32 12.66 2 13 C0.68 13.99 -0.64 14.98 -2 16 C-3.70701221 10.10304872 -1.95193635 5.58011183 0 0 Z " fill="#A3ED7E" transform="translate(99,160)"/>
<path d="M0 0 C1.0169313 2.65498232 1.13022151 3.69155375 0.00390625 6.359375 C-0.47175781 7.14828125 -0.94742188 7.9371875 -1.4375 8.75 C-2.14712891 9.94882813 -2.14712891 9.94882813 -2.87109375 11.171875 C-3.24363281 11.77515625 -3.61617188 12.3784375 -4 13 C-5.41687119 8.74938644 -4.19320039 6.28148375 -3 2 C-2.01 2 -1.02 2 0 2 C0 1.34 0 0.68 0 0 Z " fill="#A5F483" transform="translate(111,115)"/>
<path d="M0 0 C0.66 0 1.32 0 2 0 C0.61735163 2.86867231 -0.92148553 5.56024032 -2.625 8.25 C-3.07101563 8.95640625 -3.51703125 9.6628125 -3.9765625 10.390625 C-4.48316406 11.18726562 -4.48316406 11.18726562 -5 12 C-5.66 11.67 -6.32 11.34 -7 11 C-5.20974068 7.12110481 -3.03770253 3.03770253 0 0 Z " fill="#9BE06F" transform="translate(128,93)"/>
<path d="M0 0 C4.9723422 1.49170266 9.41845739 3.60457417 14 6 C11.26980214 7.06528748 10.20701188 7.07998186 7.421875 6.00390625 C6.54015625 5.52824219 5.6584375 5.05257813 4.75 4.5625 C3.85796875 4.08941406 2.9659375 3.61632812 2.046875 3.12890625 C1.37140625 2.75636719 0.6959375 2.38382812 0 2 C0 1.34 0 0.68 0 0 Z " fill="#B2F398" transform="translate(128,271)"/>
<path d="M0 0 C1.32 0.33 2.64 0.66 4 1 C2.50902342 4.7952131 0.24299151 6.61042731 -3 9 C-3.66 8.67 -4.32 8.34 -5 8 C-3.35 5.36 -1.7 2.72 0 0 Z " fill="#ACF174" transform="translate(297,265)"/>
<path d="M0 0 C0.33 0 0.66 0 1 0 C1.33 3.3 1.66 6.6 2 10 C0.68 10.33 -0.64 10.66 -2 11 C-2.25 3.375 -2.25 3.375 0 0 Z " fill="#BFFE82" transform="translate(82,239)"/>
<path d="M0 0 C0.66 0.99 1.32 1.98 2 3 C1.5390625 5.04296875 1.5390625 5.04296875 0.625 7.1875 C0.32851563 7.90292969 0.03203125 8.61835938 -0.2734375 9.35546875 C-0.51320313 9.89816406 -0.75296875 10.44085938 -1 11 C-2.32 10.34 -3.64 9.68 -5 9 C-4.01 7.02 -3.02 5.04 -2 3 C-1.34 3 -0.68 3 0 3 C0 2.01 0 1.02 0 0 Z " fill="#A8F174" transform="translate(310,226)"/>
<path d="M0 0 C2.64 0 5.28 0 8 0 C8.33 0.99 8.66 1.98 9 3 C6.69 3.33 4.38 3.66 2 4 C2 3.34 2 2.68 2 2 C1.34 2 0.68 2 0 2 C0 1.34 0 0.68 0 0 Z " fill="#C0FC7E" transform="translate(314,92)"/>
<path d="M0 0 C1.32 0.33 2.64 0.66 4 1 C3.25 5.75 3.25 5.75 1 8 C0.01 6.68 -0.98 5.36 -2 4 C-1.34 2.68 -0.68 1.36 0 0 Z " fill="#B4F462" transform="translate(338,262)"/>
<path d="M0 0 C1 3 1 3 -0.4375 6.1875 C-1.2109375 7.5796875 -1.2109375 7.5796875 -2 9 C-2.66 9 -3.32 9 -4 9 C-4 9.66 -4 10.32 -4 11 C-4.99 11.33 -5.98 11.66 -7 12 C-5.44298069 7.32894208 -2.91552627 3.91294315 0 0 Z " fill="#AEF190" transform="translate(305,253)"/>
<path d="M0 0 C1.32 0.66 2.64 1.32 4 2 C1.25 8.875 1.25 8.875 -1 10 C-0.67 6.7 -0.34 3.4 0 0 Z " fill="#B5FC66" transform="translate(268,235)"/>
<path d="M0 0 C0.66 0.33 1.32 0.66 2 1 C0.02 3.97 0.02 3.97 -2 7 C-3.65 6.67 -5.3 6.34 -7 6 C-4.74259377 3.66475218 -2.7194239 1.81294927 0 0 Z " fill="#B4F688" transform="translate(116,62)"/>
<path d="M0 0 C-0.66 1.32 -1.32 2.64 -2 4 C-2.99 4 -3.98 4 -5 4 C-5 3.34 -5 2.68 -5 2 C-6.65 2.33 -8.3 2.66 -10 3 C-7.29536552 -0.8183075 -4.37912428 -0.24787496 0 0 Z " fill="#C2FD6E" transform="translate(179,46)"/>
<path d="M0 0 C-0.75 4.75 -0.75 4.75 -3 7 C-3 6.01 -3 5.02 -3 4 C-4.98 4 -6.96 4 -9 4 C-3.7826087 0 -3.7826087 0 0 0 Z " fill="#9EE281" transform="translate(247,293)"/>
<path d="M0 0 C0.33 1.32 0.66 2.64 1 4 C-0.21484375 5.921875 -0.21484375 5.921875 -1.9375 7.75 C-2.50339844 8.36359375 -3.06929688 8.9771875 -3.65234375 9.609375 C-4.31943359 10.29773438 -4.31943359 10.29773438 -5 11 C-5.33 10.34 -5.66 9.68 -6 9 C-4.02 6.03 -2.04 3.06 0 0 Z " fill="#B8F89C" transform="translate(86,88)"/>
<path d="M0 0 C1.1484375 1.734375 1.1484375 1.734375 2 4 C1.1015625 6.140625 1.1015625 6.140625 -0.375 8.25 C-0.85710937 8.95640625 -1.33921875 9.6628125 -1.8359375 10.390625 C-2.22007813 10.92171875 -2.60421875 11.4528125 -3 12 C-4 10 -4 10 -3.22265625 7.6171875 C-2.83980469 6.71226562 -2.45695312 5.80734375 -2.0625 4.875 C-1.68222656 3.96492187 -1.30195312 3.05484375 -0.91015625 2.1171875 C-0.60980469 1.41851562 -0.30945313 0.71984375 0 0 Z " fill="#A2EF81" transform="translate(107,138)"/>
<path d="M0 0 C-1 3 -1 3 -3.0625 4.1875 C-3.701875 4.455625 -4.34125 4.72375 -5 5 C-5.66 3.68 -6.32 2.36 -7 1 C-3.375 -1.125 -3.375 -1.125 0 0 Z " fill="#B1F568" transform="translate(184,72)"/>
<path d="M0 0 C4.55737263 0.43820891 7.57653445 0.85041169 11 4 C6.35108046 4.32434322 3.77593392 3.776422 0 1 C0 0.67 0 0.34 0 0 Z " fill="#B2F385" transform="translate(187,329)"/>
<path d="M0 0 C2.9375 0.8125 2.9375 0.8125 6 2 C6.33 2.99 6.66 3.98 7 5 C9.50447516 6.21869929 9.50447516 6.21869929 12 7 C11.01 7.495 11.01 7.495 10 8 C5.36660757 6.1869334 2.8475202 4.05224029 0 0 Z " fill="#AEF38A" transform="translate(161,314)"/>
<path d="M0 0 C0.99 0.33 1.98 0.66 3 1 C2.67 3.31 2.34 5.62 2 8 C1.34 7.67 0.68 7.34 0 7 C-0.66 7 -1.32 7 -2 7 C-1.42415568 4.61435923 -0.77772405 2.33317216 0 0 Z " fill="#B8F96A" transform="translate(317,233)"/>
<path d="M0 0 C0.33 0.99 0.66 1.98 1 3 C0.67 3.66 0.34 4.32 0 5 C-0.66 5 -1.32 5 -2 5 C-2.33 5.99 -2.66 6.98 -3 8 C-3.66 8 -4.32 8 -5 8 C-3.375 2.25 -3.375 2.25 0 0 Z " fill="#B5F98B" transform="translate(81,98)"/>
<path d="M0 0 C1.21065165 3.63195496 0.62784815 5.06531629 -0.4375 8.6875 C-0.86869141 10.17830078 -0.86869141 10.17830078 -1.30859375 11.69921875 C-1.53675781 12.45847656 -1.76492187 13.21773437 -2 14 C-2.33 14 -2.66 14 -3 14 C-2.88617347 12.04098546 -2.75858875 10.0827662 -2.625 8.125 C-2.55539063 7.03445312 -2.48578125 5.94390625 -2.4140625 4.8203125 C-2 2 -2 2 0 0 Z " fill="#90E070" transform="translate(162,80)"/>
<path d="M0 0 C0.33 0.99 0.66 1.98 1 3 C-1.83430453 6.2542015 -3.68607774 7.5206753 -8 8 C-5.58443874 4.80800833 -3.31996462 2.25283313 0 0 Z " fill="#B1F793" transform="translate(102,72)"/>
<path d="M0 0 C3.36704285 -0.2295711 5.41370268 -0.33943529 8.375 1.375 C8.91125 1.91125 9.4475 2.4475 10 3 C10 3.66 10 4.32 10 5 C6.08788267 3.84414715 3.1254959 2.64465038 0 0 Z " fill="#A8EF82" transform="translate(144,307)"/>
<path d="M0 0 C6.52307692 0.61538462 6.52307692 0.61538462 8.9375 2.5625 C9.288125 3.036875 9.63875 3.51125 10 4 C9.67 4.66 9.34 5.32 9 6 C6.03 4.35 3.06 2.7 0 1 C0 0.67 0 0.34 0 0 Z " fill="#B0F28E" transform="translate(121,295)"/>
<path d="M0 0 C2 3 2 3 3 6 C1.35 6.33 -0.3 6.66 -2 7 C-2 5.02 -2 3.04 -2 1 C-1.34 0.67 -0.68 0.34 0 0 Z " fill="#B7FC64" transform="translate(331,274)"/>
<path d="M0 0 C1.32 0 2.64 0 4 0 C4 1.98 4 3.96 4 6 C3.01 6.495 3.01 6.495 2 7 C1.87625 6.360625 1.7525 5.72125 1.625 5.0625 C1.315625 4.0415625 1.315625 4.0415625 1 3 C0.34 2.67 -0.32 2.34 -1 2 C-0.67 1.34 -0.34 0.68 0 0 Z " fill="#BBFB6E" transform="translate(300,177)"/>
<path d="M0 0 C0.33 1.65 0.66 3.3 1 5 C-4.75 3.25 -4.75 3.25 -7 1 C-2.25 0 -2.25 0 0 0 Z " fill="#ABF381" transform="translate(294,101)"/>
<path d="M0 0 C0 0.66 0 1.32 0 2 C-3.82320557 3.42258812 -6.91281305 4.24042276 -11 4 C-7.88789178 0.88789178 -4.34860953 0 0 0 Z " fill="#B6F391" transform="translate(144,51)"/>
<path d="M0 0 C3.63 1.65 7.26 3.3 11 5 C7.59068103 6.13643966 6.99664544 5.86747764 3.8125 4.5625 C3.09707031 4.27503906 2.38164062 3.98757812 1.64453125 3.69140625 C1.10183594 3.46324219 0.55914062 3.23507813 0 3 C0 2.01 0 1.02 0 0 Z " fill="#B9F89D" transform="translate(218,38)"/>
<path d="M0 0 C1.65 0 3.3 0 5 0 C5 0.99 5 1.98 5 3 C3.02 3.99 1.04 4.98 -1 6 C-0.67 4.02 -0.34 2.04 0 0 Z " fill="#BFFD6B" transform="translate(227,313)"/>
<path d="M0 0 C2 2 2 2 2.125 5.625 C2.08375 6.73875 2.0425 7.8525 2 9 C1.01 9.495 1.01 9.495 0 10 C-1.36952673 7.26094655 -1.12621361 5.02912668 -1 2 C-0.67 1.34 -0.34 0.68 0 0 Z " fill="#AFF868" transform="translate(262,262)"/>
<path d="M0 0 C2 4 2 4 1.4375 6.125 C0 8 0 8 -5 10 C-3.35 6.7 -1.7 3.4 0 0 Z " fill="#ADF771" transform="translate(118,118)"/>
<path d="M0 0 C3.91211733 1.15585285 6.8745041 2.35534962 10 5 C4.5388601 4.64766839 4.5388601 4.64766839 2 4 C0.5 1.9375 0.5 1.9375 0 0 Z " fill="#B3F58E" transform="translate(242,51)"/>
<path d="M0 0 C1.37780724 2.75561448 0.92023755 4.09771234 0 7 C-2.0625 8.8125 -2.0625 8.8125 -4 10 C-3.5205537 5.78087253 -2.83374881 3.20336822 0 0 Z " fill="#B1F56A" transform="translate(109,142)"/>
<path d="M0 0 C0 0.99 0 1.98 0 3 C-2.31 2.67 -4.62 2.34 -7 2 C-7 1.34 -7 0.68 -7 0 C-3.98968256 -0.93423645 -3.13349732 -1.04449911 0 0 Z " fill="#BFFC72" transform="translate(230,65)"/>
<path d="M0 0 C2.31 0 4.62 0 7 0 C7.33 1.32 7.66 2.64 8 4 C2.25 2.25 2.25 2.25 0 0 Z " fill="#ABF082" transform="translate(88,278)"/>
<path d="M0 0 C0.99 0.99 1.98 1.98 3 3 C2.67 3.66 2.34 4.32 2 5 C2.33 5.99 2.66 6.98 3 8 C1.68 8 0.36 8 -1 8 C-0.67 5.36 -0.34 2.72 0 0 Z " fill="#AEFB6C" transform="translate(260,272)"/>
<path d="M0 0 C2.64 0 5.28 0 8 0 C8 1.32 8 2.64 8 4 C2.25 2.25 2.25 2.25 0 0 Z " fill="#A4F281" transform="translate(80,274)"/>
<path d="M0 0 C0.99 0 1.98 0 3 0 C2.67 1.65 2.34 3.3 2 5 C1.34 5 0.68 5 0 5 C-0.33 5.99 -0.66 6.98 -1 8 C-2 6 -2 6 -1.0625 2.875 C-0.5365625 1.451875 -0.5365625 1.451875 0 0 Z " fill="#AFFB65" transform="translate(308,224)"/>
<path d="M0 0 C2.475 0.495 2.475 0.495 5 1 C5 3.64 5 6.28 5 9 C4.67 9 4.34 9 4 9 C3.67 6.69 3.34 4.38 3 2 C2.01 2 1.02 2 0 2 C0 1.34 0 0.68 0 0 Z " fill="#AEE993" transform="translate(320,172)"/>
<path d="M0 0 C0.99 0.33 1.98 0.66 3 1 C-0.465 3.97 -0.465 3.97 -4 7 C-4 5.35 -4 3.7 -4 2 C-2.68 2 -1.36 2 0 2 C0 1.34 0 0.68 0 0 Z " fill="#A4F07E" transform="translate(178,51)"/>
<path d="M0 0 C5 2 5 2 10 4 C7.5502519 4.87491004 6.36551707 5.12900603 3.875 4.25 C2 3 2 3 0 0 Z " fill="#C1FE80" transform="translate(177,298)"/>
<path d="M0 0 C0.99 0 1.98 0 3 0 C2.34 1.98 1.68 3.96 1 6 C0.01 6 -0.98 6 -2 6 C-1.34 4.02 -0.68 2.04 0 0 Z " fill="#BBFC67" transform="translate(279,198)"/>
<path d="M0 0 C2.625 -0.1875 2.625 -0.1875 5 0 C4.67 0.99 4.34 1.98 4 3 C2.02 3 0.04 3 -2 3 C-1.34 2.01 -0.68 1.02 0 0 Z " fill="#BBFC68" transform="translate(108,194)"/>
<path d="M0 0 C1.65 0 3.3 0 5 0 C4.67 1.32 4.34 2.64 4 4 C2.68 3.67 1.36 3.34 0 3 C0 2.01 0 1.02 0 0 Z " fill="#BBF86C" transform="translate(131,176)"/>
<path d="M0 0 C0.66 0.33 1.32 0.66 2 1 C0.68 3.31 -0.64 5.62 -2 8 C-3.03864166 4.88407501 -3.09036928 3.9737344 -2 1 C-1.34 0.67 -0.68 0.34 0 0 Z " fill="#B7F768" transform="translate(103,160)"/>
<path d="M0 0 C0.33 1.32 0.66 2.64 1 4 C-0.65 5.32 -2.3 6.64 -4 8 C-4.66 7.67 -5.32 7.34 -6 7 C-4.02 4.69 -2.04 2.38 0 0 Z " fill="#B1F699" transform="translate(93,80)"/>
</svg>
